<?xml version="1.0" encoding="UTF-8"?>
<svg id="Layer_2" data-name="Layer 2" xmlns="http://www.w3.org/2000/svg" viewBox="0 0 101.41 100.65">
  <defs>
    <style>
      .cls-1 {
        fill: #333;
      }
    </style>
  </defs>
  <g id="OBJECTS">
    <g>
      <path class="cls-1" d="M44.22,6.67c0,.46,.37,.83,.83,.83s.83-.37,.83-.83-.37-.83-.83-.83-.83,.37-.83,.83Z"/>
      <path class="cls-1" d="M49.09,11.66c.46,0,.83-.37,.83-.83s-.37-.83-.83-.83-.83,.37-.83,.83,.37,.83,.83,.83Z"/>
      <path class="cls-1" d="M38.92,11.37c.3,0,.55-.24,.55-.55s-.24-.55-.55-.55-.55,.24-.55,.55,.24,.55,.55,.55Z"/>
      <path class="cls-1" d="M49.31,40.52c-.3,0-.55,.24-.55,.55s.24,.55,.55,.55,.55-.24,.55-.55-.24-.55-.55-.55Z"/>
      <path class="cls-1" d="M47.72,15.54c.3,0,.55-.24,.55-.55s-.24-.55-.55-.55-.55,.24-.55,.55,.24,.55,.55,.55Z"/>
      <path class="cls-1" d="M44.74,2.91c.8,0,1.45-.65,1.45-1.45s-.65-1.45-1.45-1.45-1.45,.65-1.45,1.45,.65,1.45,1.45,1.45Z"/>
      <path class="cls-1" d="M37.5,5.41c1.73-.07,3.46,.15,5.19,.03,1.92-.13,5.03-1.03,5.58-3.21,.23-.56,.27-1.22,.04-1.97-.01-.04-.07-.03-.07,0-.07,2.49-1.86,3.49-3.95,3.83-.51,0-1.02-.03-1.51-.07-1.62-.12-3.22-.47-4.83-.7-1.34-.19-2.95-.35-4.43-.11l.99,2.71c.97-.25,1.94-.46,2.99-.5Z"/>
      <path class="cls-1" d="M49.31,32.42c.3,0,.55-.24,.55-.55s-.24-.55-.55-.55-.55,.24-.55,.55,.24,.55,.55,.55Z"/>
      <path class="cls-1" d="M47.85,35.88c.46,0,.83-.37,.83-.83s-.37-.83-.83-.83-.83,.37-.83,.83,.37,.83,.83,.83Z"/>
      <path class="cls-1" d="M45.42,27.93c0-.3-.24-.55-.55-.55s-.55,.24-.55,.55,.24,.55,.55,.55,.55-.24,.55-.55Z"/>
      <path class="cls-1" d="M47.02,26c.8,0,1.45-.65,1.45-1.45s-.65-1.45-1.45-1.45-1.45,.65-1.45,1.45,.65,1.45,1.45,1.45Z"/>
      <path class="cls-1" d="M43.19,18.01c.3,0,.55-.24,.55-.55s-.24-.55-.55-.55-.55,.24-.55,.55,.24,.55,.55,.55Z"/>
      <path class="cls-1" d="M44.74,14.6c.46,0,.83-.37,.83-.83s-.37-.83-.83-.83-.83,.37-.83,.83,.37,.83,.83,.83Z"/>
      <path class="cls-1" d="M55.53,6.67c0,.46,.37,.83,.83,.83s.83-.37,.83-.83-.37-.83-.83-.83-.83,.37-.83,.83Z"/>
      <path class="cls-1" d="M52.32,11.66c.46,0,.83-.37,.83-.83s-.37-.83-.83-.83-.83,.37-.83,.83,.37,.83,.83,.83Z"/>
      <path class="cls-1" d="M62.49,10.28c-.3,0-.55,.24-.55,.55s.24,.55,.55,.55,.55-.24,.55-.55-.24-.55-.55-.55Z"/>
      <path class="cls-1" d="M52.64,41.06c0-.3-.24-.55-.55-.55s-.55,.24-.55,.55,.24,.55,.55,.55,.55-.24,.55-.55Z"/>
      <path class="cls-1" d="M53.69,15.54c.3,0,.55-.24,.55-.55s-.24-.55-.55-.55-.55,.24-.55,.55,.24,.55,.55,.55Z"/>
      <path class="cls-1" d="M56.67,2.91c.8,0,1.45-.65,1.45-1.45s-.65-1.45-1.45-1.45-1.45,.65-1.45,1.45,.65,1.45,1.45,1.45Z"/>
      <path class="cls-1" d="M48.68,39.31c.65-.52,1.48-.78,2.02-1.45,0,0,0,0,0,0,0,0,0,0,0,0,.54,.67,1.37,.92,2.02,1.45,1.14,.93,1.02,1.89,.9,3.08l.99-2.72c-.04-.12-.09-.23-.14-.35-.48-1.02-1.61-1.34-2.38-2.05-.75-.7-1.11-1.54-1.39-2.45-.28,.91-.64,1.75-1.39,2.45-.77,.72-1.9,1.04-2.38,2.05-.05,.11-.1,.23-.14,.35l.99,2.72c-.12-1.19-.24-2.15,.9-3.08Z"/>
      <path class="cls-1" d="M58.72,5.44c1.73,.12,3.46-.1,5.19-.03,1.05,.04,2.02,.25,2.99,.5l.99-2.71c-1.48-.23-3.08-.08-4.43,.11-1.61,.23-3.21,.58-4.83,.7-.49,.04-1,.07-1.51,.07-2.09-.34-3.88-1.34-3.95-3.83,0-.04-.06-.05-.07,0-.22,.76-.18,1.41,.04,1.97,.55,2.19,3.66,3.08,5.58,3.21Z"/>
      <path class="cls-1" d="M52.1,32.42c.3,0,.55-.24,.55-.55s-.24-.55-.55-.55-.55,.24-.55,.55,.24,.55,.55,.55Z"/>
      <path class="cls-1" d="M53.56,35.88c.46,0,.83-.37,.83-.83s-.37-.83-.83-.83-.83,.37-.83,.83,.37,.83,.83,.83Z"/>
      <path class="cls-1" d="M56.54,28.48c.3,0,.55-.24,.55-.55s-.24-.55-.55-.55-.55,.24-.55,.55,.24,.55,.55,.55Z"/>
      <path class="cls-1" d="M55.84,24.54c0-.8-.65-1.45-1.45-1.45s-1.45,.65-1.45,1.45,.65,1.45,1.45,1.45,1.45-.65,1.45-1.45Z"/>
      <path class="cls-1" d="M58.23,18.01c.3,0,.55-.24,.55-.55s-.24-.55-.55-.55-.55,.24-.55,.55,.24,.55,.55,.55Z"/>
      <path class="cls-1" d="M56.67,14.6c.46,0,.83-.37,.83-.83s-.37-.83-.83-.83-.83,.37-.83,.83,.37,.83,.83,.83Z"/>
      <path class="cls-1" d="M42.24,26.49c-.09-2.14,.69-3.8,2.31-5.41,.84-.83,1.46-1.69,1.65-2.73,.3,.17,.63,.3,.94,.47,.56,.25,1.03,.68,1.39,1.18,.18,.25,.39,.58,.54,.93,.02-.03,.03-.06,.03-.1,.07-1.13,.35-2.16,.86-3.18,.2-.41,.46-.76,.74-1.09,.28,.33,.54,.68,.74,1.09,.5,1.01,.79,2.05,.86,3.18,0,.04,.01,.07,.03,.1,.15-.35,.36-.68,.54-.93,.36-.5,.83-.93,1.39-1.18,.31-.17,.64-.3,.94-.47,.19,1.04,.81,1.9,1.65,2.73,1.62,1.61,2.4,3.27,2.31,5.41,.01,.23,0,.47-.02,.72l1.18-3.25c-.11-.57-.31-1.1-.58-1.53-.39-.61-.89-1.09-1.39-1.58-.5-.56-1.03-1.1-1.4-1.7-.31-.45-.53-.96-.57-1.46-.06-.62,.28-1.39,.82-1.74-1.62,0-3.32,.33-4.37,1.6-.07-.22-.17-.44-.3-.67-.92-1.63-1.22-3.07-1.64-4.87-.02-.1-.11-.16-.2-.18-.09,.02-.17,.08-.2,.18-.42,1.79-.72,3.24-1.64,4.87-.13,.23-.23,.45-.3,.67-1.05-1.28-2.75-1.61-4.37-1.6,.54,.35,.87,1.12,.82,1.74-.04,.5-.26,1.01-.57,1.46-.36,.61-.89,1.15-1.4,1.7-.5,.49-1,.97-1.39,1.58-.27,.43-.47,.96-.58,1.53l1.18,3.25c-.02-.25-.03-.49-.02-.72Z"/>
      <path class="cls-1" d="M17.62,21.07c.29,.35,.82,.4,1.17,.1,.35-.29,.4-.82,.1-1.17-.29-.35-.82-.4-1.17-.1-.35,.29-.4,.82-.1,1.17Z"/>
      <path class="cls-1" d="M24.56,21.76c.35-.29,.4-.82,.1-1.17-.29-.35-.82-.4-1.17-.1-.35,.29-.4,.82-.1,1.17,.29,.35,.82,.4,1.17,.1Z"/>
      <path class="cls-1" d="M16.59,28.08c.23-.19,.26-.54,.07-.77-.19-.23-.54-.26-.77-.07-.23,.19-.26,.54-.07,.77,.19,.23,.54,.26,.77,.07Z"/>
      <path class="cls-1" d="M43.28,43.73c-.23,.19-.26,.54-.07,.77,.19,.23,.54,.26,.77,.07,.23-.19,.26-.54,.07-.77-.19-.23-.54-.26-.77-.07Z"/>
      <path class="cls-1" d="M26,25.62c.23-.19,.26-.54,.07-.77-.19-.23-.54-.26-.77-.07-.23,.19-.26,.54-.07,.77s.54,.26,.77,.07Z"/>
      <path class="cls-1" d="M15.6,17.86c.61-.52,.69-1.43,.18-2.05-.52-.61-1.43-.69-2.05-.18-.61,.52-.69,1.43-.18,2.05,.52,.61,1.43,.69,2.05,.18Z"/>
      <path class="cls-1" d="M11.67,24.43c1.28-1.16,2.74-2.11,3.99-3.31,1.39-1.33,3.19-4.02,2.21-6.05-.19-.58-.58-1.1-1.24-1.54-.03-.02-.07,.02-.05,.05,1.54,1.95,.82,3.87-.57,5.47-.39,.33-.8,.63-1.2,.92-1.32,.95-2.77,1.71-4.15,2.57-1.15,.72-2.48,1.63-3.47,2.76l2.5,1.44c.58-.82,1.19-1.6,1.97-2.31Z"/>
      <path class="cls-1" d="M38.07,37.53c.23-.19,.26-.54,.07-.77-.19-.23-.54-.26-.77-.07-.23,.19-.26,.54-.07,.77,.19,.23,.54,.26,.77,.07Z"/>
      <path class="cls-1" d="M38.01,41.01c.29,.35,.82,.4,1.17,.1,.35-.29,.4-.82,.1-1.17-.29-.35-.82-.4-1.17-.1-.35,.29-.4,.82-.1,1.17Z"/>
      <path class="cls-1" d="M31.44,36.52c-.23,.19-.26,.54-.07,.77s.54,.26,.77,.07c.23-.19,.26-.54,.07-.77-.19-.23-.54-.26-.77-.07Z"/>
      <path class="cls-1" d="M32.37,32.03c-.52-.61-1.43-.69-2.05-.18-.61,.52-.69,1.43-.18,2.05,.52,.61,1.43,.69,2.05,.18,.61-.52,.69-1.43,.18-2.05Z"/>
      <path class="cls-1" d="M23.42,29.59c-.23,.19-.26,.54-.07,.77,.19,.23,.54,.26,.77,.07s.26-.54,.07-.77c-.19-.23-.54-.26-.77-.07Z"/>
      <path class="cls-1" d="M23.11,26.81c.35-.29,.4-.82,.1-1.17-.29-.35-.82-.4-1.17-.1-.35,.29-.4,.82-.1,1.17,.29,.35,.82,.4,1.17,.1Z"/>
      <path class="cls-1" d="M26.39,12.63c-.35,.29-.4,.82-.1,1.17,.29,.35,.82,.4,1.17,.1,.35-.29,.4-.82,.1-1.17-.29-.35-.82-.4-1.17-.1Z"/>
      <path class="cls-1" d="M27.03,19.69c.35-.29,.4-.82,.1-1.17-.29-.35-.82-.4-1.17-.1-.35,.29-.4,.82-.1,1.17,.29,.35,.82,.4,1.17,.1Z"/>
      <path class="cls-1" d="M33.93,12.1c-.23,.19-.26,.54-.07,.77s.54,.26,.77,.07c.23-.19,.26-.54,.07-.77-.19-.23-.54-.26-.77-.07Z"/>
      <path class="cls-1" d="M46.11,42.77c.23-.19,.26-.54,.07-.77-.19-.23-.54-.26-.77-.07-.23,.19-.26,.54-.07,.77,.19,.23,.54,.26,.77,.07Z"/>
      <path class="cls-1" d="M30.58,21.78c.23-.19,.26-.54,.07-.77s-.54-.26-.77-.07c-.23,.19-.26,.54-.07,.77,.19,.23,.54,.26,.77,.07Z"/>
      <path class="cls-1" d="M24.74,10.19c.61-.52,.69-1.43,.18-2.05-.52-.61-1.43-.69-2.05-.18-.61,.52-.69,1.43-.18,2.05,.52,.61,1.43,.69,2.05,.18Z"/>
      <path class="cls-1" d="M21.6,11.94c1.83,1.32,4.79,0,6.34-1.13,1.4-1.02,2.58-2.3,3.95-3.36,.83-.64,1.71-1.11,2.62-1.54l-.99-2.71c-1.28,.77-2.41,1.92-3.32,2.93-1.08,1.21-2.09,2.5-3.25,3.64-.35,.35-.72,.7-1.11,1.02-1.82,1.09-3.84,1.47-5.49-.39-.03-.03-.08,0-.06,.04,.31,.72,.77,1.2,1.3,1.48Z"/>
      <path class="cls-1" d="M40.21,35.73c.23-.19,.26-.54,.07-.77-.19-.23-.54-.26-.77-.07-.23,.19-.26,.54-.07,.77,.19,.23,.54,.26,.77,.07Z"/>
      <path class="cls-1" d="M43.55,37.44c.35-.29,.4-.82,.1-1.17-.29-.35-.82-.4-1.17-.1-.35,.29-.4,.82-.1,1.17,.29,.35,.82,.4,1.17,.1Z"/>
      <path class="cls-1" d="M41.07,29.86c.23-.19,.26-.54,.07-.77s-.54-.26-.77-.07c-.23,.19-.26,.54-.07,.77s.54,.26,.77,.07Z"/>
      <path class="cls-1" d="M37.83,29.34c.61-.52,.69-1.43,.18-2.05-.52-.61-1.43-.69-2.05-.18-.61,.52-.69,1.43-.18,2.05,.52,.61,1.43,.69,2.05,.18Z"/>
      <path class="cls-1" d="M35.64,20.76c.23-.19,.26-.54,.07-.77-.19-.23-.54-.26-.77-.07s-.26,.54-.07,.77c.19,.23,.54,.26,.77,.07Z"/>
      <path class="cls-1" d="M32.25,19.14c.35-.29,.4-.82,.1-1.17-.29-.35-.82-.4-1.17-.1-.35,.29-.4,.82-.1,1.17,.29,.35,.82,.4,1.17,.1Z"/>
      <path class="cls-1" d="M25.91,20.86c-.06,.07-.08,.17-.04,.26,.83,1.64,1.53,2.94,1.87,4.78,.05,.25,.11,.49,.2,.71-1.62-.31-3.14,.53-4.38,1.58,.64-.08,1.39,.3,1.75,.81,.28,.41,.45,.94,.5,1.49,.11,.7,.05,1.45,.03,2.2-.07,.7-.15,1.39-.05,2.1,.07,.5,.26,1.04,.54,1.54l2.99,1.73c-.18-.17-.34-.35-.48-.54-1.44-1.58-1.92-3.35-1.71-5.63,.11-1.17,.03-2.23-.49-3.15,.34-.06,.68-.18,1.02-.24,.59-.17,1.23-.15,1.82,0,.3,.08,.68,.19,1.02,.37,0-.03-.02-.06-.04-.09-.67-.91-1.12-1.88-1.39-2.98-.11-.44-.13-.88-.13-1.31,.43,.07,.85,.17,1.27,.36,1.04,.45,1.92,1.06,2.7,1.88,.03,.03,.06,.04,.09,.05-.11-.37-.16-.76-.18-1.07-.05-.62,.04-1.25,.31-1.8,.12-.33,.29-.64,.41-.97,.81,.67,1.84,.93,3.02,1.03,2.28,.19,3.94,.97,5.25,2.66,.16,.17,.31,.36,.45,.56l-1.18-3.25c-.45-.36-.94-.64-1.43-.8-.69-.22-1.38-.27-2.08-.32-.74-.1-1.49-.18-2.16-.41-.53-.15-1.03-.4-1.38-.75-.44-.44-.68-1.24-.49-1.86-1.25,1.04-2.33,2.39-2.32,4.04-.2-.12-.42-.23-.66-.32-1.76-.66-2.91-1.57-4.38-2.67-.08-.06-.18-.05-.26,0Z"/>
      <path class="cls-1" d="M7.46,48.53c.08-.45-.22-.88-.67-.96-.45-.08-.88,.22-.96,.67-.08,.45,.22,.88,.67,.96,.45,.08,.88-.22,.96-.67Z"/>
      <path class="cls-1" d="M11.59,44.31c-.45-.08-.88,.22-.96,.67-.08,.45,.22,.88,.67,.96,.45,.08,.88-.22,.96-.67s-.22-.88-.67-.96Z"/>
      <path class="cls-1" d="M9.77,54.6c-.3-.05-.58,.15-.63,.44-.05,.3,.15,.58,.44,.63,.3,.05,.58-.15,.63-.44,.05-.3-.15-.58-.44-.63Z"/>
      <path class="cls-1" d="M41.35,49.62c-.3-.05-.58,.15-.63,.44s.15,.58,.44,.63c.3,.05,.58-.15,.63-.44,.05-.3-.15-.58-.44-.63Z"/>
      <path class="cls-1" d="M15.84,47.3c.05-.3-.15-.58-.44-.63-.3-.05-.58,.15-.63,.44-.05,.3,.15,.58,.44,.63,.3,.05,.58-.15,.63-.44Z"/>
      <path class="cls-1" d="M2.88,48.04c.14-.79-.39-1.54-1.18-1.68-.79-.14-1.54,.39-1.68,1.18-.14,.79,.39,1.54,1.18,1.68,.79,.14,1.54-.39,1.68-1.18Z"/>
      <path class="cls-1" d="M4.1,55.6c.23-1.72,.74-3.38,.93-5.1,.21-1.91-.14-5.13-2.19-6.06-.51-.32-1.15-.48-1.94-.39-.04,0-.04,.06,0,.07,2.44,.5,3.11,2.44,3.08,4.56-.09,.5-.21,.99-.33,1.47-.4,1.58-1.02,3.09-1.53,4.64-.42,1.29-.85,2.85-.88,4.34l2.84-.5c-.08-1-.12-1.99,.02-3.04Z"/>
      <path class="cls-1" d="M32.3,48.03c-.3-.05-.58,.15-.63,.44-.05,.3,.15,.58,.44,.63,.3,.05,.58-.15,.63-.44,.05-.3-.15-.58-.44-.63Z"/>
      <path class="cls-1" d="M35.89,50.7c.08-.45-.22-.88-.67-.96-.45-.08-.88,.22-.96,.67-.08,.45,.22,.88,.67,.96,.45,.08,.88-.22,.96-.67Z"/>
      <path class="cls-1" d="M27.65,51.72c-.3-.05-.58,.15-.63,.44-.05,.3,.15,.58,.44,.63,.3,.05,.58-.15,.63-.44,.05-.3-.15-.58-.44-.63Z"/>
      <path class="cls-1" d="M23.16,49.3c-.14,.79,.39,1.54,1.18,1.68,.79,.14,1.54-.39,1.68-1.18,.14-.79-.39-1.54-1.18-1.68-.79-.14-1.54,.39-1.68,1.18Z"/>
      <path class="cls-1" d="M17.05,51.56c-.3-.05-.58,.15-.63,.44-.05,.3,.15,.58,.44,.63,.3,.05,.58-.15,.63-.44,.05-.3-.15-.58-.44-.63Z"/>
      <path class="cls-1" d="M13.72,49.11c-.45-.08-.88,.22-.96,.67-.08,.45,.22,.88,.67,.96,.45,.08,.88-.22,.96-.67,.08-.45-.22-.88-.67-.96Z"/>
      <path class="cls-1" d="M7.79,37.1c-.08,.45,.22,.88,.67,.96,.45,.08,.88-.22,.96-.67,.08-.45-.22-.88-.67-.96-.45-.08-.88,.22-.96,.67Z"/>
      <path class="cls-1" d="M18.46,55.93c-1.41-.22-2.61-.43-3.79-1.33-.8-.62-1.29-1.58-2.18-2.1-.97-.57-2.02-.79-3.04-.65,.26-.57,.48-1.16,.79-1.71,.54-.95,1.27-1.74,2.02-2.52-.75,.11-1.66-.36-2.11-.9-.66-.78-1.34-1.72-1.84-2.73-.14-.22-.28-.42-.42-.59-.21-.25-.46-.47-.72-.67,.32-.09,.63-.22,.91-.38,.19-.11,.39-.25,.6-.41,.82-.78,1.78-1.43,2.66-1.94,.61-.35,1.63-.48,2.29-.13-.44-.99-.86-1.98-1.04-3.06-.1-.62-.12-1.25-.16-1.88,.92,.48,1.98,.64,3.08,.43,1.01-.19,1.8-.93,2.77-1.23,1.41-.45,2.61-.23,4.01,.05,.08,.02,.14-.03,.16-.09h0c.04-.05,.06-.12,0-.19-.94-1.08-1.73-2-2.05-3.45-.22-.99,.02-2.04-.32-3.01-.37-1.06-1.04-1.9-1.91-2.45,.56-.27,1.12-.58,1.71-.8,1.02-.38,2.09-.52,3.17-.63-.64-.4-1.03-1.34-1.04-2.05,0-1.02,.08-2.18,.34-3.27,.03-.26,.06-.51,.06-.73,0-.33-.05-.65-.12-.98,.3,.13,.62,.23,.94,.29,.22,.04,.46,.06,.72,.07,1.13-.07,2.28,.05,3.28,.23,.69,.12,1.56,.67,1.84,1.38,.3-1.04,.61-2.07,1.17-3.01,.32-.54,.71-1.03,1.08-1.54,.39,.96,1.1,1.76,2.08,2.31,.9,.51,1.98,.45,2.91,.84,1.37,.57,2.15,1.5,3.04,2.61,.05,.07,.13,.07,.19,.03h0c.07-.01,.12-.06,.12-.15-.03-1.43-.03-2.65,.65-3.96,.47-.9,1.33-1.55,1.69-2.51,.4-1.05,.43-2.12,.11-3.11,.61,.15,1.23,.28,1.82,.49,1.03,.36,1.93,.95,2.83,1.55-.24-.72,.07-1.69,.52-2.24,.65-.78,1.46-1.61,2.37-2.29,.19-.18,.37-.35,.51-.52,.21-.25,.39-.53,.53-.83,.15,.3,.32,.58,.53,.83,.14,.17,.32,.34,.51,.52,.91,.67,1.72,1.5,2.37,2.29,.45,.54,.76,1.52,.52,2.24,.9-.61,1.8-1.19,2.83-1.55,.59-.21,1.21-.33,1.82-.49-.32,.99-.29,2.06,.11,3.11,.36,.97,1.23,1.61,1.69,2.51,.68,1.31,.68,2.53,.65,3.96,0,.09,.05,.13,.12,.15h0c.06,.03,.13,.03,.19-.03,.9-1.11,1.67-2.05,3.04-2.61,.94-.39,2.01-.33,2.91-.84,.98-.55,1.69-1.35,2.08-2.31,.37,.51,.76,1,1.08,1.54,.56,.94,.87,1.97,1.17,3.01,.28-.7,1.14-1.25,1.84-1.38,1-.18,2.16-.3,3.28-.23,.26-.01,.51-.03,.72-.07,.32-.06,.64-.16,.94-.29-.08,.32-.12,.65-.12,.98,0,.22,.02,.46,.06,.73,.26,1.1,.35,2.26,.34,3.27,0,.71-.39,1.65-1.04,2.05,1.08,.11,2.14,.24,3.17,.63,.59,.22,1.14,.52,1.71,.8-.88,.55-1.54,1.39-1.91,2.45-.34,.97-.1,2.02-.32,3.01-.32,1.45-1.1,2.37-2.05,3.45-.06,.06-.04,.14,0,.19h0c.02,.06,.08,.11,.16,.09,1.4-.28,2.6-.49,4.01-.05,.97,.3,1.76,1.04,2.77,1.23,1.11,.21,2.17,.05,3.08-.43-.04,.62-.06,1.25-.16,1.88-.18,1.08-.6,2.07-1.04,3.06,.67-.36,1.68-.22,2.29,.13,.88,.5,1.84,1.16,2.66,1.94,.21,.16,.41,.3,.6,.41,.28,.16,.59,.29,.91,.38-.27,.2-.51,.42-.72,.67-.14,.17-.28,.37-.42,.59-.5,1.01-1.18,1.95-1.84,2.73-.46,.54-1.36,1.01-2.11,.9,.75,.78,1.48,1.56,2.02,2.52,.31,.55,.54,1.13,.79,1.71-1.03-.14-2.07,.08-3.04,.65-.89,.52-1.38,1.49-2.18,2.1-1.17,.9-2.37,1.11-3.79,1.33-.09,.01-.12,.08-.12,.14l3.08,.54c.67-.17,1.32-.54,1.75-.93,.46-.42,.87-.87,1.29-1.29,0,0,0,0,0,0,.11-.1,.22-.21,.33-.31,.21-.19,.42-.36,.64-.5,.56-.32,1.16-.5,1.86-.43,.58,.02,1.16,.19,1.57,.44,.52,.32,.91,1.11,.98,1.87,.01-.02,.03-.05,.03-.08,.23-1.49,.08-2.95-.55-4.33-.44-.97-1.01-2.11-1.75-2.97,.38-.18,.71-.49,.97-.83,.73-.98,1.2-2.12,2.07-3,.51-.52,1.08-.98,1.69-1.36,.41-.23,.85-.44,1.3-.65,0,0,0,0,0,0,.56-.2,1.18-.32,1.75-.5-.6,.02-1.22,.13-1.81,.13,0,0,0,0,0,0-.5-.04-.98-.09-1.45-.17-.71-.15-1.4-.39-2.06-.7-1.12-.53-1.95-1.44-2.97-2.11-.36-.23-.77-.41-1.19-.45,.4-1.07,.54-2.33,.63-3.4,.12-1.52-.24-2.94-.96-4.26-.01-.03-.03-.05-.06-.06,.19,.74,.1,1.61-.29,2.09-.3,.38-.79,.74-1.32,.95-.63,.31-1.26,.34-1.89,.24-.26-.06-.52-.15-.77-.25-.14-.06-.28-.12-.42-.18,0,0,0,0,0,0-.54-.25-1.08-.53-1.65-.77-.54-.22-1.27-.34-1.97-.27l-2.21,1.28,2.21-1.28c.4-.56,.67-1.26,.75-1.84,.08-.61,.11-1.23,.16-1.82,0,0,0,0,0,0,.02-.15,.03-.3,.05-.45,.04-.27,.09-.54,.17-.8,.23-.61,.57-1.13,1.15-1.52,.46-.35,1.01-.6,1.49-.67,.61-.09,1.41,.27,1.96,.8,0-.03-.01-.05-.03-.08-.78-1.29-1.83-2.31-3.21-2.96-.96-.46-2.13-.97-3.26-1.15,.17-.38,.23-.83,.21-1.26-.07-1.22-.44-2.4-.34-3.63,.06-.73,.2-1.44,.42-2.13,.17-.44,.37-.89,.58-1.34,0,0,0,0,0,0,.3-.52,.7-1,1.02-1.51-.44,.4-.85,.88-1.31,1.26,0,0,0,0,0,0-.41,.29-.81,.56-1.22,.8-.64,.34-1.32,.6-2.03,.78-1.2,.32-2.42,.15-3.63,.3-.42,.05-.85,.19-1.2,.42-.38-1.08-1.08-2.14-1.7-3.01-.88-1.24-2.07-2.1-3.47-2.64-.03-.01-.06-.01-.08-.01,.62,.45,1.11,1.17,1.13,1.79,.01,.48-.13,1.07-.4,1.58-.29,.64-.74,1.07-1.3,1.4-.24,.12-.49,.22-.76,.3-.14,.04-.29,.09-.43,.13,0,0,0,0,0,0-.57,.16-1.17,.28-1.76,.47-.56,.18-1.2,.56-1.68,1.05l-.75,2.06,.75-2.06c-.05-.69-.3-1.39-.61-1.89-.33-.52-.71-1.01-1.04-1.49,0,0,0,0,0,0-.08-.13-.17-.25-.25-.38-.15-.24-.28-.47-.39-.72-.22-.61-.29-1.23-.1-1.91,.12-.57,.39-1.11,.71-1.47,.41-.46,1.25-.7,2.01-.64-.02-.02-.04-.03-.07-.04-1.43-.49-2.89-.59-4.36-.21-1.03,.27-2.25,.63-3.23,1.21-.11-.41-.36-.79-.65-1.1-.84-.89-1.88-1.55-2.59-2.56-.42-.59-.78-1.23-1.05-1.9-.16-.45-.29-.91-.41-1.4,0,0,0,0,0,0-.1-.59-.11-1.21-.19-1.81-.08,.6-.08,1.22-.19,1.81,0,0,0,0,0,0-.12,.48-.26,.95-.41,1.4-.27,.67-.63,1.31-1.05,1.9-.71,1.01-1.75,1.67-2.59,2.56-.29,.31-.53,.69-.65,1.1-.98-.58-2.2-.94-3.23-1.21-1.47-.38-2.93-.28-4.36,.21-.03,0-.05,.03-.07,.04,.76-.05,1.6,.19,2.01,.64,.32,.36,.59,.9,.71,1.47,.19,.68,.12,1.3-.1,1.91-.11,.25-.24,.48-.39,.72-.08,.13-.17,.25-.25,.38,0,0,0,0,0,0-.34,.49-.71,.97-1.04,1.49-.31,.49-.56,1.2-.61,1.89l.75,2.06-.75-2.06c-.49-.5-1.13-.87-1.68-1.05-.59-.19-1.19-.32-1.76-.47,0,0,0,0,0,0-.14-.04-.29-.09-.43-.13-.26-.09-.52-.18-.76-.3-.56-.33-1.01-.76-1.3-1.4-.27-.51-.41-1.1-.4-1.58,.02-.61,.51-1.34,1.13-1.79-.03,0-.05,0-.08,.01-1.41,.54-2.59,1.4-3.47,2.64-.62,.87-1.32,1.93-1.7,3.01-.35-.24-.78-.37-1.2-.42-1.21-.14-2.44,.02-3.63-.3-.7-.19-1.39-.44-2.03-.78-.41-.24-.81-.51-1.22-.8,0,0,0,0,0,0-.46-.38-.86-.86-1.31-1.26,.32,.51,.72,.99,1.02,1.51,0,0,0,0,0,0,.22,.45,.41,.89,.58,1.34,.22,.69,.36,1.41,.42,2.13,.1,1.23-.27,2.41-.34,3.63-.02,.42,.03,.87,.21,1.26-1.13,.19-2.29,.69-3.26,1.15-1.37,.65-2.43,1.67-3.21,2.96-.02,.03-.02,.05-.03,.08,.55-.53,1.35-.89,1.96-.8,.48,.07,1.03,.31,1.49,.67,.58,.39,.93,.92,1.15,1.52,.08,.26,.13,.52,.17,.8,.02,.15,.03,.3,.05,.45,0,0,0,0,0,0,.06,.59,.08,1.2,.16,1.82,.08,.58,.34,1.27,.75,1.84l2.21,1.28-2.21-1.28c-.69-.07-1.43,.05-1.97,.27-.57,.23-1.12,.52-1.65,.77,0,0,0,0,0,0-.14,.06-.28,.12-.42,.18-.26,.1-.51,.19-.77,.25-.64,.11-1.26,.07-1.89-.24-.54-.22-1.02-.57-1.32-.95-.38-.48-.47-1.36-.29-2.09-.02,.02-.04,.04-.06,.06-.73,1.32-1.08,2.74-.96,4.26,.09,1.06,.23,2.33,.63,3.4-.42,.04-.84,.21-1.19,.45-1.02,.67-1.85,1.58-2.97,2.11-.66,.31-1.35,.55-2.06,.7-.47,.08-.95,.13-1.45,.17,0,0,0,0,0,0-.59,0-1.21-.11-1.81-.13,.57,.18,1.19,.29,1.75,.5,0,0,0,0,0,0,.46,.21,.89,.42,1.3,.65,.61,.38,1.18,.85,1.69,1.36,.87,.88,1.34,2.02,2.07,3,.25,.34,.59,.65,.97,.83-.74,.87-1.31,2.01-1.75,2.97-.63,1.38-.78,2.84-.55,4.33,0,.03,.02,.05,.03,.08,.08-.76,.46-1.55,.98-1.87,.41-.25,.99-.42,1.57-.44,.7-.07,1.3,.11,1.86,.43,.22,.15,.43,.32,.64,.5,.11,.1,.22,.21,.33,.31,0,0,0,0,0,0,.42,.41,.83,.87,1.29,1.29,.43,.39,1.08,.76,1.75,.93l3.08-.54c0-.07-.04-.13-.12-.14Z"/>
      <path class="cls-1" d="M12.15,41.13c-.45-.08-.88,.22-.96,.67-.08,.45,.22,.88,.67,.96,.45,.08,.88-.22,.96-.67,.08-.45-.22-.88-.67-.96Z"/>
      <path class="cls-1" d="M13.23,31.84c-.05,.3,.15,.58,.44,.63,.3,.05,.58-.15,.63-.44,.05-.3-.15-.58-.44-.63s-.58,.15-.63,.44Z"/>
      <path class="cls-1" d="M41.83,46.88c-.3-.05-.58,.15-.63,.44s.15,.58,.44,.63,.58-.15,.63-.44c.05-.3-.15-.58-.44-.63Z"/>
      <path class="cls-1" d="M15.81,41.22c-.05,.3,.15,.58,.44,.63,.3,.05,.58-.15,.63-.44s-.15-.58-.44-.63-.58,.15-.63,.44Z"/>
      <path class="cls-1" d="M3.27,37.47c.79,.14,1.54-.39,1.68-1.18,.14-.79-.39-1.54-1.18-1.68-.79-.14-1.54,.39-1.68,1.18-.14,.79,.39,1.54,1.18,1.68Z"/>
      <path class="cls-1" d="M39.42,50.47c-.4-.73-.51-1.59-1.07-2.24,0,0,0,0,0,0,0,0,0,0,0,0,.75-.42,1.15-1.19,1.78-1.74,1.11-.96,2.04-.68,3.19-.35h0s0,0,0,0c-.86-.83-1.56-1.49-1.29-2.94,.16-.82,.63-1.55,.62-2.41,0,0,0,0,0,0,0,0,0,0,0,0,.84,.16,1.64-.17,2.48-.19,1.47-.02,2,.79,2.67,1.78l-.99-2.72c-.11-.06-.22-.12-.33-.17-1.02-.47-2.1,.01-3.14-.04-1.02-.05-1.84-.47-2.64-.98,.37,.88,.63,1.75,.51,2.77-.13,1.04-.79,2.02-.5,3.1,.03,.12,.07,.24,.11,.36-.12,.02-.25,.05-.37,.08-1.08,.3-1.6,1.36-2.44,1.99-.82,.62-1.71,.83-2.65,.94,.85,.43,1.61,.94,2.17,1.79,.57,.88,.69,2.05,1.61,2.7,.1,.07,.21,.14,.32,.2l2.85-.5c-1.19-.09-2.16-.14-2.87-1.42Z"/>
      <path class="cls-1" d="M3.68,39.65c2.25-.17,3.67-3.07,4.13-4.94,.42-1.68,.5-3.42,.87-5.11,.22-1.03,.6-1.95,1.02-2.86l-2.5-1.44c-.49,1.42-.61,3.02-.66,4.38-.05,1.62,.01,3.26-.15,4.88-.05,.49-.1,1-.19,1.5-.7,2-1.99,3.59-4.45,3.23-.04,0-.06,.05-.02,.07,.71,.35,1.36,.43,1.95,.3Z"/>
      <path class="cls-1" d="M32.79,45.28c-.3-.05-.58,.15-.63,.44-.05,.3,.15,.58,.44,.63s.58-.15,.63-.44c.05-.3-.15-.58-.44-.63Z"/>
      <path class="cls-1" d="M35.92,45.75c.45,.08,.88-.22,.96-.67s-.22-.88-.67-.96c-.45-.08-.88,.22-.96,.67-.08,.45,.22,.88,.67,.96Z"/>
      <path class="cls-1" d="M29.04,40.67c-.05,.3,.15,.58,.44,.63s.58-.15,.63-.44c.05-.3-.15-.58-.44-.63-.3-.05-.58,.15-.63,.44Z"/>
      <path class="cls-1" d="M27.3,42.55c.14-.79-.39-1.54-1.18-1.68s-1.54,.39-1.68,1.18c-.14,.79,.39,1.54,1.18,1.68,.79,.14,1.54-.39,1.68-1.18Z"/>
      <path class="cls-1" d="M19.47,37.82c.3,.05,.58-.15,.63-.44,.05-.3-.15-.58-.44-.63-.3-.05-.58,.15-.63,.44s.15,.58,.44,.63Z"/>
      <path class="cls-1" d="M15.51,38.99c.45,.08,.88-.22,.96-.67,.08-.45-.22-.88-.67-.96-.45-.08-.88,.22-.96,.67-.08,.45,.22,.88,.67,.96Z"/>
      <path class="cls-1" d="M25.68,54.6c-2.12-.29-3.62-1.34-4.93-3.22-.67-.97-1.41-1.73-2.4-2.1,.22-.27,.4-.57,.63-.84,.34-.51,.84-.9,1.4-1.17,.28-.13,.64-.29,1.01-.37-.02-.02-.05-.04-.09-.05-1.1-.26-2.07-.72-2.98-1.39-.37-.27-.67-.59-.94-.92,.37-.22,.76-.41,1.2-.54,1.08-.32,2.15-.42,3.28-.29,.04,0,.07,0,.1-.01-.32-.21-.61-.48-.82-.7-.43-.44-.77-.98-.92-1.57-.12-.33-.19-.68-.3-1.01,1.06,0,2.01-.47,2.98-1.15,1.87-1.32,3.64-1.79,5.73-1.34,.23,.03,.47,.08,.71,.14l-2.99-1.73c-.58,.01-1.14,.11-1.61,.31-.67,.27-1.23,.68-1.8,1.09-.64,.4-1.26,.83-1.92,1.08-.5,.23-1.04,.35-1.54,.31-.62-.05-1.32-.51-1.57-1.11-.29,1.6-.26,3.33,.82,4.58-.23,.04-.47,.09-.71,.18-1.77,.63-3.24,.67-5.08,.77-.1,0-.17,.08-.21,.16,0,.09,.05,.19,.14,.22,1.69,.72,3.06,1.27,4.51,2.46,.2,.16,.4,.3,.61,.41-1.44,.81-2.07,2.43-2.34,4.02,.44-.47,1.25-.66,1.86-.5,.48,.13,.95,.43,1.34,.82,.54,.46,.97,1.08,1.44,1.67,.39,.58,.78,1.16,1.31,1.64,.37,.34,.87,.63,1.4,.84l3.4-.6c-.25-.02-.48-.05-.71-.11Z"/>
      <path class="cls-1" d="M16.07,77.9c.4-.23,.53-.74,.3-1.13-.23-.4-.74-.53-1.13-.3-.4,.23-.53,.74-.3,1.13,.23,.4,.74,.53,1.13,.3Z"/>
      <path class="cls-1" d="M16.82,70.88c-.4,.23-.53,.74-.3,1.13,.23,.4,.74,.53,1.13,.3,.4-.23,.53-.74,.3-1.13-.23-.4-.74-.53-1.13-.3Z"/>
      <path class="cls-1" d="M22.59,80.88c.26-.15,.35-.48,.2-.74-.15-.26-.48-.35-.74-.2-.26,.15-.35,.48-.2,.74,.15,.26,.48,.35,.74,.2Z"/>
      <path class="cls-1" d="M43.03,55.82c-.26,.15-.35,.48-.2,.74,.15,.26,.48,.35,.74,.2,.26-.15,.35-.48,.2-.74s-.48-.35-.74-.2Z"/>
      <path class="cls-1" d="M21.8,71.18c.26-.15,.35-.48,.2-.74-.15-.26-.48-.35-.74-.2-.26,.15-.35,.48-.2,.74,.15,.26,.48,.35,.74,.2Z"/>
      <path class="cls-1" d="M10.56,78.8c-.69,.4-.93,1.29-.53,1.98,.4,.69,1.29,.93,1.98,.53,.69-.4,.93-1.29,.53-1.98-.4-.69-1.29-.93-1.98-.53Z"/>
      <path class="cls-1" d="M18.34,84.35c-.92-1.46-1.6-3.07-2.57-4.51-1.07-1.6-3.4-3.84-5.57-3.23-.6,.08-1.19,.38-1.73,.95-.03,.03,0,.08,.04,.06,2.19-1.18,3.95-.13,5.29,1.51,.25,.44,.48,.9,.69,1.34,.7,1.47,1.2,3.03,1.81,4.53,.51,1.26,1.18,2.73,2.12,3.89l1.85-2.21c-.7-.72-1.37-1.45-1.93-2.34Z"/>
      <path class="cls-1" d="M35.07,60.42c-.26,.15-.35,.48-.2,.74,.15,.26,.48,.35,.74,.2,.26-.15,.35-.48,.2-.74s-.48-.35-.74-.2Z"/>
      <path class="cls-1" d="M38.41,59.85c-.4,.23-.53,.74-.3,1.13s.74,.53,1.13,.3c.4-.23,.53-.74,.3-1.13-.23-.4-.74-.53-1.13-.3Z"/>
      <path class="cls-1" d="M33.88,66.23c-.26,.15-.35,.48-.2,.74s.48,.35,.74,.2c.26-.15,.35-.48,.2-.74-.15-.26-.48-.35-.74-.2Z"/>
      <path class="cls-1" d="M29.42,65.28c-.69,.4-.93,1.29-.53,1.98,.4,.69,1.29,.93,1.98,.53,.69-.4,.93-1.29,.53-1.98s-1.29-.93-1.98-.53Z"/>
      <path class="cls-1" d="M25.66,72.93c-.26,.15-.35,.48-.2,.74,.15,.26,.48,.35,.74,.2,.26-.15,.35-.48,.2-.74-.15-.26-.48-.35-.74-.2Z"/>
      <path class="cls-1" d="M21.54,73.19c-.4,.23-.53,.74-.3,1.13,.23,.4,.74,.53,1.13,.3,.4-.23,.53-.74,.3-1.13-.23-.4-.74-.53-1.13-.3Z"/>
      <path class="cls-1" d="M10.41,68.11c.4-.23,.53-.74,.3-1.13-.23-.4-.74-.53-1.13-.3-.4,.23-.53,.74-.3,1.13s.74,.53,1.13,.3Z"/>
      <path class="cls-1" d="M29.55,75.37c-1.22,.74-2.27,1.35-3.75,1.42-1.01,.04-2.01-.38-3.02-.21-1.11,.18-2.05,.69-2.75,1.46-.17-.6-.37-1.2-.49-1.82-.2-1.08-.15-2.15-.07-3.23-.5,.56-1.5,.79-2.2,.67-1-.17-2.13-.46-3.16-.91-.25-.08-.49-.14-.71-.18-.32-.06-.65-.07-.98-.05,.18-.28,.34-.57,.45-.88,.08-.21,.14-.44,.2-.7,.13-1.12,.44-2.24,.8-3.19,.24-.66,.93-1.42,1.68-1.57-.98-.47-1.93-.96-2.76-1.67-.48-.41-.89-.88-1.33-1.33,1.01-.22,1.92-.78,2.64-1.65,.66-.8,.79-1.87,1.33-2.72,.8-1.25,1.85-1.85,3.1-2.54,.08-.04,.09-.11,.07-.18l-3.08,.54c-.57,.39-1.06,.96-1.33,1.47-.29,.55-.52,1.12-.77,1.65,0,0,0,0,0,0-.07,.14-.13,.27-.2,.41-.13,.25-.27,.48-.43,.69-.42,.49-.92,.86-1.6,1.04-.55,.18-1.15,.22-1.63,.12-.6-.12-1.23-.74-1.56-1.42,0,.03,0,.05,0,.08,.29,1.48,.93,2.8,2,3.88,.75,.76,1.67,1.64,2.67,2.2-.3,.3-.5,.7-.63,1.11-.35,1.17-.4,2.4-.92,3.53-.31,.66-.68,1.29-1.12,1.86-.31,.36-.65,.71-1,1.06,0,0,0,0,0,0-.46,.38-1,.7-1.47,1.07,.56-.23,1.1-.54,1.66-.74,0,0,0,0,0,0,.48-.13,.95-.25,1.42-.34,.72-.1,1.45-.11,2.17-.04,1.23,.11,2.33,.68,3.52,.96,.41,.1,.87,.12,1.27,.01-.01,1.14,.29,2.38,.57,3.41,.4,1.47,1.23,2.68,2.36,3.67,.02,.02,.05,.03,.07,.04-.43-.63-.64-1.48-.45-2.06,.15-.46,.49-.96,.92-1.35,.49-.5,1.06-.75,1.7-.87,.26-.03,.54-.04,.81-.03,.15,0,.3,.02,.45,.03,0,0,0,0,0,0,.59,.05,1.2,.13,1.82,.16,.58,.02,1.31-.12,1.94-.41l2.01-2.39c-.04-.05-.11-.08-.19-.03Z"/>
      <path class="cls-1" d="M16.34,68.39c-.23-.4-.74-.53-1.13-.3-.4,.23-.53,.74-.3,1.13s.74,.53,1.13,.3c.4-.23,.53-.74,.3-1.13Z"/>
      <path class="cls-1" d="M10.06,60.28c.15,.26,.48,.35,.74,.2,.26-.15,.35-.48,.2-.74-.15-.26-.48-.35-.74-.2-.26,.15-.35,.48-.2,.74Z"/>
      <path class="cls-1" d="M41.64,53.41c-.26,.15-.35,.48-.2,.74,.15,.26,.48,.35,.74,.2,.26-.15,.35-.48,.2-.74-.15-.26-.48-.35-.74-.2Z"/>
      <path class="cls-1" d="M18.81,66.01c.26-.15,.35-.48,.2-.74-.15-.26-.48-.35-.74-.2-.26,.15-.35,.48-.2,.74,.15,.26,.48,.35,.74,.2Z"/>
      <path class="cls-1" d="M6.58,69c-.4-.69-1.29-.93-1.98-.53-.69,.4-.93,1.29-.53,1.98,.4,.69,1.29,.93,1.98,.53,.69-.4,.93-1.29,.53-1.98Z"/>
      <path class="cls-1" d="M7.75,65.96c-.76-1.56-1.81-2.94-2.62-4.48-.49-.93-.79-1.88-1.06-2.84l-2.84,.5c.54,1.4,1.48,2.71,2.31,3.78,1,1.28,2.1,2.49,3.02,3.83,.28,.41,.56,.83,.82,1.27,.75,1.98,.78,4.03-1.34,5.34-.04,.02-.01,.08,.03,.07,.77-.18,1.31-.55,1.69-1.02,1.62-1.57,.84-4.71-.01-6.44Z"/>
      <path class="cls-1" d="M33.68,58c-.26,.15-.35,.48-.2,.74,.15,.26,.48,.35,.74,.2,.26-.15,.35-.48,.2-.74s-.48-.35-.74-.2Z"/>
      <path class="cls-1" d="M35.56,54.91c-.4,.23-.53,.74-.3,1.13,.23,.4,.74,.53,1.13,.3,.4-.23,.53-.74,.3-1.13-.23-.4-.74-.53-1.13-.3Z"/>
      <path class="cls-1" d="M27.85,56.87c.15,.26,.48,.35,.74,.2,.26-.15,.35-.48,.2-.74-.15-.26-.48-.35-.74-.2-.26,.15-.35,.48-.2,.74Z"/>
      <path class="cls-1" d="M25.73,58.9c-.69,.4-.93,1.29-.53,1.98,.4,.69,1.29,.93,1.98,.53,.69-.4,.93-1.29,.53-1.98-.4-.69-1.29-.93-1.98-.53Z"/>
      <path class="cls-1" d="M18.68,60.85c.26-.15,.35-.48,.2-.74-.15-.26-.48-.35-.74-.2-.26,.15-.35,.48-.2,.74,.15,.26,.48,.35,.74,.2Z"/>
      <path class="cls-1" d="M16.4,64.29c.4-.23,.53-.74,.3-1.13-.23-.4-.74-.53-1.13-.3s-.53,.74-.3,1.13,.74,.53,1.13,.3Z"/>
      <path class="cls-1" d="M40.77,94.23c.43,.16,.91-.07,1.06-.5,.16-.43-.07-.91-.5-1.06-.43-.16-.91,.07-1.06,.5-.16,.43,.07,.91,.5,1.06Z"/>
      <path class="cls-1" d="M38.97,87.38c-.43-.16-.91,.07-1.06,.5-.16,.43,.07,.91,.5,1.06,.43,.16,.91-.07,1.06-.5s-.07-.91-.5-1.06Z"/>
      <path class="cls-1" d="M48.42,91.13c-.28-.1-.6,.04-.7,.33-.1,.28,.04,.6,.33,.7,.28,.1,.6-.04,.7-.33s-.04-.6-.33-.7Z"/>
      <path class="cls-1" d="M49,59.17c-.28-.1-.6,.04-.7,.33s.04,.6,.33,.7,.6-.04,.7-.33-.04-.6-.33-.7Z"/>
      <path class="cls-1" d="M41.59,84.2c-.28-.1-.6,.04-.7,.33-.1,.28,.04,.6,.33,.7,.28,.1,.6-.04,.7-.33,.1-.28-.04-.6-.33-.7Z"/>
      <path class="cls-1" d="M40.06,97.1c-.75-.27-1.59,.11-1.86,.87-.27,.75,.11,1.59,.87,1.86,.75,.27,1.59-.11,1.86-.87,.27-.75-.11-1.59-.87-1.86Z"/>
      <path class="cls-1" d="M47.72,97.21c-1.65-.53-3.2-1.32-4.86-1.8-1.85-.54-5.08-.76-6.35,1.11-.4,.45-.67,1.05-.72,1.84,0,.04,.06,.05,.07,.02,.91-2.31,2.94-2.64,5.02-2.24,.48,.17,.94,.38,1.39,.58,1.48,.67,2.87,1.54,4.3,2.31,1.2,.64,2.65,1.33,4.12,1.62v-2.88c-1-.1-1.98-.23-2.99-.55Z"/>
      <path class="cls-1" d="M45.86,67.8c-.28-.1-.6,.04-.7,.33-.1,.28,.04,.6,.33,.7s.6-.04,.7-.33-.04-.6-.33-.7Z"/>
      <path class="cls-1" d="M48.42,65.05c-.43-.16-.91,.07-1.06,.5s.07,.91,.5,1.06c.43,.16,.91-.07,1.06-.5,.16-.43-.07-.91-.5-1.06Z"/>
      <path class="cls-1" d="M47.99,73.35c-.1,.28,.04,.6,.33,.7,.28,.1,.6-.04,.7-.33s-.04-.6-.33-.7c-.28-.1-.6,.04-.7,.33Z"/>
      <path class="cls-1" d="M43.95,75.49c-.27,.75,.11,1.59,.87,1.86,.75,.27,1.59-.11,1.86-.87,.27-.75-.11-1.59-.87-1.86-.75-.27-1.59,.11-1.86,.87Z"/>
      <path class="cls-1" d="M46.69,83.43c-.28-.1-.6,.04-.7,.33s.04,.6,.33,.7c.28,.1,.6-.04,.7-.33s-.04-.6-.33-.7Z"/>
      <path class="cls-1" d="M44.06,86.11c-.43-.16-.91,.07-1.06,.5-.16,.43,.07,.91,.5,1.06,.43,.16,.91-.07,1.06-.5,.16-.43-.07-.91-.5-1.06Z"/>
      <path class="cls-1" d="M31.21,89.87c.16-.43-.07-.91-.5-1.06s-.91,.07-1.06,.5,.07,.91,.5,1.06c.43,.16,.91-.07,1.06-.5Z"/>
      <path class="cls-1" d="M50.54,83.12c-.46,1.35-.87,2.5-1.96,3.5-.75,.68-1.78,1-2.45,1.78-.73,.85-1.13,1.85-1.17,2.88-.52-.35-1.06-.68-1.54-1.08-.84-.7-1.49-1.55-2.13-2.43-.02,.76-.65,1.57-1.26,1.92-.88,.51-1.93,1.02-3.01,1.34-.24,.1-.47,.2-.66,.32-.28,.16-.54,.37-.78,.6-.04-.33-.11-.65-.22-.96-.07-.21-.18-.43-.3-.66-.62-.94-1.1-2-1.44-2.96-.24-.66-.19-1.69,.27-2.28-1.05,.26-2.1,.5-3.19,.49-.63,0-1.25-.1-1.88-.17,.63-.82,.97-1.83,.96-2.96-.01-1.03-.6-1.94-.73-2.94-.19-1.47,.23-2.61,.74-3.94,.03-.08,0-.14-.06-.18l-2.01,2.39c-.19,.67-.19,1.41-.07,1.98,.13,.61,.32,1.19,.47,1.76,0,0,0,0,0,0,.04,.15,.07,.29,.11,.44,.06,.27,.1,.54,.12,.81,0,.65-.15,1.26-.56,1.82-.31,.49-.74,.91-1.17,1.14-.54,.29-1.42,.23-2.11-.08,.01,.02,.03,.05,.05,.07,1.17,.94,2.51,1.54,4.03,1.69,1.06,.1,2.33,.18,3.45-.03-.03,.42,.06,.86,.23,1.25,.48,1.12,1.24,2.1,1.56,3.3,.19,.7,.31,1.42,.34,2.15,0,.47-.04,.96-.09,1.45,0,0,0,0,0,0-.1,.59-.31,1.18-.44,1.76,.28-.53,.5-1.12,.79-1.63,0,0,0,0,0,0,.28-.41,.57-.8,.87-1.17,.49-.54,1.04-1.01,1.64-1.43,1.02-.71,2.22-.97,3.31-1.52,.38-.19,.74-.47,.98-.81,.72,.88,1.75,1.64,2.63,2.24,1.25,.86,2.66,1.26,4.17,1.3,.03,0,.06,0,.08-.02-.73-.21-1.44-.72-1.67-1.29-.18-.45-.24-1.05-.16-1.62,.05-.7,.33-1.26,.74-1.76,.18-.19,.39-.37,.61-.54,.12-.09,.24-.18,.36-.27,0,0,0,0,0,0,.48-.34,1-.67,1.49-1.05,.46-.36,.93-.93,1.22-1.57v-3.12c-.07-.01-.14,.01-.16,.1Z"/>
      <path class="cls-1" d="M35.93,86.28c-.43-.16-.91,.07-1.06,.5-.16,.43,.07,.91,.5,1.06s.91-.07,1.06-.5-.07-.91-.5-1.06Z"/>
      <path class="cls-1" d="M25.91,84.09c.28,.1,.6-.04,.7-.33s-.04-.6-.33-.7c-.28-.1-.6,.04-.7,.33s.04,.6,.33,.7Z"/>
      <path class="cls-1" d="M46.38,58.21c-.28-.1-.6,.04-.7,.33-.1,.28,.04,.6,.33,.7s.6-.04,.7-.33c.1-.28-.04-.6-.33-.7Z"/>
      <path class="cls-1" d="M36.3,82.86c.1-.28-.04-.6-.33-.7s-.6,.04-.7,.33,.04,.6,.33,.7c.28,.1,.6-.04,.7-.33Z"/>
      <path class="cls-1" d="M28.85,93.01c-.75-.27-1.59,.11-1.86,.87-.27,.75,.11,1.59,.87,1.86,.75,.27,1.59-.11,1.86-.87s-.11-1.59-.87-1.86Z"/>
      <path class="cls-1" d="M27.79,89.93c-1.59-.7-3.28-1.09-4.88-1.75-.97-.4-1.81-.93-2.64-1.5l-1.85,2.21c1.31,.72,2.87,1.13,4.2,1.41,1.59,.33,3.21,.56,4.78,.99,.48,.13,.97,.28,1.44,.45,1.85,1.03,3.19,2.59,2.41,4.95-.01,.04,.04,.07,.06,.03,.47-.64,.66-1.27,.63-1.87,.23-2.24-2.39-4.15-4.15-4.93Z"/>
      <path class="cls-1" d="M43.24,66.84c-.28-.1-.6,.04-.7,.33-.1,.28,.04,.6,.33,.7,.28,.1,.6-.04,.7-.33,.1-.28-.04-.6-.33-.7Z"/>
      <path class="cls-1" d="M43.55,64.16c.16-.43-.07-.91-.5-1.06-.43-.16-.91,.07-1.06,.5-.16,.43,.07,.91,.5,1.06,.43,.16,.91-.07,1.06-.5Z"/>
      <path class="cls-1" d="M37.35,70.06c.28,.1,.6-.04,.7-.33,.1-.28-.04-.6-.33-.7s-.6,.04-.7,.33c-.1,.28,.04,.6,.33,.7Z"/>
      <path class="cls-1" d="M37.9,74.83c.75,.27,1.59-.11,1.86-.87,.27-.75-.11-1.59-.87-1.86-.75-.27-1.59,.11-1.86,.87-.27,.75,.11,1.59,.87,1.86Z"/>
      <path class="cls-1" d="M32.18,79.32c.28,.1,.6-.04,.7-.33s-.04-.6-.33-.7c-.28-.1-.6,.04-.7,.33s.04,.6,.33,.7Z"/>
      <path class="cls-1" d="M32.85,82.03c-.43-.16-.91,.07-1.06,.5-.16,.43,.07,.91,.5,1.06,.43,.16,.91-.07,1.06-.5,.16-.43-.07-.91-.5-1.06Z"/>
      <path class="cls-1" d="M71.26,90.36c.43-.16,.65-.63,.5-1.06s-.63-.65-1.06-.5c-.43,.16-.65,.63-.5,1.06,.16,.43,.63,.65,1.06,.5Z"/>
      <path class="cls-1" d="M65.48,86.28c-.43,.16-.65,.63-.5,1.06,.16,.43,.63,.65,1.06,.5s.65-.63,.5-1.06-.63-.65-1.06-.5Z"/>
      <path class="cls-1" d="M75.13,83.07c-.28,.1-.43,.42-.33,.7s.42,.43,.7,.33c.28-.1,.43-.42,.33-.7s-.42-.43-.7-.33Z"/>
      <path class="cls-1" d="M55.03,58.21c-.28,.1-.43,.42-.33,.7,.1,.28,.42,.43,.7,.33,.28-.1,.43-.42,.33-.7-.1-.28-.42-.43-.7-.33Z"/>
      <path class="cls-1" d="M65.81,83.18c.28-.1,.43-.42,.33-.7-.1-.28-.42-.43-.7-.33s-.43,.42-.33,.7c.1,.28,.42,.43,.7,.33Z"/>
      <path class="cls-1" d="M72.56,93.01c-.75,.27-1.14,1.11-.87,1.86,.27,.75,1.11,1.14,1.86,.87,.75-.27,1.14-1.11,.87-1.86-.27-.75-1.11-1.14-1.86-.87Z"/>
      <path class="cls-1" d="M78.5,88.18c-1.6,.66-3.3,1.04-4.88,1.75-1.76,.78-4.38,2.68-4.15,4.93-.02,.61,.16,1.23,.63,1.87,.02,.03,.08,0,.06-.03-.79-2.36,.56-3.92,2.41-4.95,.48-.17,.97-.32,1.44-.45,1.57-.44,3.19-.66,4.78-.99,1.33-.28,2.89-.68,4.2-1.41l-1.85-2.21c-.83,.57-1.67,1.1-2.64,1.5Z"/>
      <path class="cls-1" d="M58.17,66.84c-.28,.1-.43,.42-.33,.7s.42,.43,.7,.33c.28-.1,.43-.42,.33-.7-.1-.28-.42-.43-.7-.33Z"/>
      <path class="cls-1" d="M58.36,63.1c-.43,.16-.65,.63-.5,1.06,.16,.43,.63,.65,1.06,.5,.43-.16,.65-.63,.5-1.06-.16-.43-.63-.65-1.06-.5Z"/>
      <path class="cls-1" d="M64.06,70.06c.28-.1,.43-.42,.33-.7s-.42-.43-.7-.33c-.28,.1-.43,.42-.33,.7,.1,.28,.42,.43,.7,.33Z"/>
      <path class="cls-1" d="M62.52,72.1c-.75,.27-1.14,1.11-.87,1.86,.27,.75,1.11,1.14,1.86,.87,.75-.27,1.14-1.11,.87-1.86-.27-.75-1.11-1.14-1.86-.87Z"/>
      <path class="cls-1" d="M69.23,79.32c.28-.1,.43-.42,.33-.7s-.42-.43-.7-.33c-.28,.1-.43,.42-.33,.7s.42,.43,.7,.33Z"/>
      <path class="cls-1" d="M68.56,82.03c-.43,.16-.65,.63-.5,1.06,.16,.43,.63,.65,1.06,.5,.43-.16,.65-.63,.5-1.06-.16-.43-.63-.65-1.06-.5Z"/>
      <path class="cls-1" d="M60.64,94.23c.43-.16,.65-.63,.5-1.06-.16-.43-.63-.65-1.06-.5-.43,.16-.65,.63-.5,1.06,.16,.43,.63,.65,1.06,.5Z"/>
      <path class="cls-1" d="M71.61,75.58c.52,1.33,.94,2.47,.74,3.94-.13,1.01-.72,1.91-.73,2.94-.01,1.12,.32,2.14,.96,2.96-.62,.06-1.25,.16-1.88,.17-1.09,.01-2.14-.23-3.19-.49,.47,.6,.51,1.62,.27,2.28-.34,.96-.82,2.02-1.44,2.96-.12,.23-.23,.46-.3,.66-.11,.31-.18,.63-.22,.96-.24-.23-.5-.43-.78-.6-.19-.11-.41-.21-.66-.32-1.08-.32-2.13-.83-3.01-1.34-.61-.35-1.23-1.17-1.26-1.92-.64,.88-1.28,1.73-2.13,2.43-.49,.4-1.02,.73-1.54,1.08-.04-1.03-.44-2.03-1.17-2.88-.67-.78-1.7-1.1-2.45-1.78-1.09-1-1.5-2.14-1.96-3.5-.03-.08-.1-.11-.16-.1v3.12c.29,.63,.76,1.21,1.22,1.57,.49,.38,1.01,.71,1.49,1.05,0,0,0,0,0,0,.12,.09,.24,.18,.36,.27,.22,.17,.42,.35,.61,.54,.41,.5,.69,1.06,.74,1.76,.08,.57,.01,1.17-.16,1.62-.23,.57-.94,1.09-1.67,1.29,.02,.01,.05,.02,.08,.02,1.51-.03,2.92-.43,4.17-1.3,.88-.61,1.9-1.36,2.63-2.24,.24,.34,.6,.62,.98,.81,1.09,.55,2.3,.81,3.31,1.52,.6,.42,1.15,.89,1.64,1.43,.3,.37,.58,.76,.87,1.17,0,0,0,0,0,0,.3,.51,.52,1.1,.79,1.63-.13-.59-.34-1.18-.44-1.76,0,0,0,0,0,0-.05-.5-.08-.98-.09-1.45,.03-.72,.15-1.45,.34-2.15,.32-1.2,1.08-2.17,1.56-3.3,.17-.39,.27-.83,.23-1.25,1.12,.21,2.39,.13,3.45,.03,1.51-.14,2.85-.74,4.03-1.69,.02-.02,.04-.04,.05-.07-.69,.31-1.57,.37-2.11,.08-.43-.23-.86-.65-1.17-1.14-.41-.57-.56-1.18-.56-1.82,.02-.27,.06-.54,.12-.81,.03-.15,.07-.29,.11-.44,0,0,0,0,0,0,.15-.57,.34-1.16,.47-1.76,.12-.57,.11-1.31-.07-1.98l-2.01-2.39c-.06,.03-.1,.1-.06,.18Z"/>
      <path class="cls-1" d="M62.44,87.38c-.43,.16-.65,.63-.5,1.06,.16,.43,.63,.65,1.06,.5,.43-.16,.65-.63,.5-1.06-.16-.43-.63-.65-1.06-.5Z"/>
      <path class="cls-1" d="M53.36,92.15c.28-.1,.43-.42,.33-.7-.1-.28-.42-.43-.7-.33-.28,.1-.43,.42-.33,.7s.42,.43,.7,.33Z"/>
      <path class="cls-1" d="M52.41,59.17c-.28,.1-.43,.42-.33,.7s.42,.43,.7,.33c.28-.1,.43-.42,.33-.7s-.42-.43-.7-.33Z"/>
      <path class="cls-1" d="M59.82,84.2c-.28,.1-.43,.42-.33,.7s.42,.43,.7,.33c.28-.1,.43-.42,.33-.7s-.42-.43-.7-.33Z"/>
      <path class="cls-1" d="M61.35,97.1c-.75,.27-1.14,1.11-.87,1.86,.27,.75,1.11,1.14,1.86,.87,.75-.27,1.14-1.11,.87-1.86-.27-.75-1.11-1.14-1.86-.87Z"/>
      <path class="cls-1" d="M58.55,95.41c-1.67,.48-3.21,1.27-4.86,1.8-1,.32-1.99,.45-2.99,.55v2.88c1.47-.29,2.92-.98,4.12-1.62,1.43-.77,2.82-1.64,4.3-2.31,.45-.2,.92-.41,1.39-.58,2.08-.4,4.11-.07,5.02,2.24,.02,.04,.07,.03,.07-.02-.05-.79-.31-1.39-.72-1.84-1.27-1.86-4.5-1.64-6.35-1.11Z"/>
      <path class="cls-1" d="M55.55,67.8c-.28,.1-.43,.42-.33,.7s.42,.43,.7,.33,.43-.42,.33-.7c-.1-.28-.42-.43-.7-.33Z"/>
      <path class="cls-1" d="M53,65.05c-.43,.16-.65,.63-.5,1.06,.16,.43,.63,.65,1.06,.5,.43-.16,.65-.63,.5-1.06-.16-.43-.63-.65-1.06-.5Z"/>
      <path class="cls-1" d="M52.73,73.02c-.28,.1-.43,.42-.33,.7s.42,.43,.7,.33c.28-.1,.43-.42,.33-.7-.1-.28-.42-.43-.7-.33Z"/>
      <path class="cls-1" d="M55.6,74.62c-.75,.27-1.14,1.11-.87,1.86,.27,.75,1.11,1.14,1.86,.87,.75-.27,1.14-1.11,.87-1.86-.27-.75-1.11-1.14-1.86-.87Z"/>
      <path class="cls-1" d="M54.72,83.43c-.28,.1-.43,.42-.33,.7,.1,.28,.42,.43,.7,.33,.28-.1,.43-.42,.33-.7s-.42-.43-.7-.33Z"/>
      <path class="cls-1" d="M57.35,86.11c-.43,.16-.65,.63-.5,1.06,.16,.43,.63,.65,1.06,.5,.43-.16,.65-.63,.5-1.06-.16-.43-.63-.65-1.06-.5Z"/>
      <path class="cls-1" d="M90.7,66.97c-.23,.4-.09,.9,.3,1.13,.4,.23,.9,.09,1.13-.3,.23-.4,.09-.9-.3-1.13-.4-.23-.9-.09-1.13,.3Z"/>
      <path class="cls-1" d="M85.08,68.39c-.23,.4-.09,.9,.3,1.13,.4,.23,.9,.09,1.13-.3,.23-.4,.09-.9-.3-1.13-.4-.23-.9-.09-1.13,.3Z"/>
      <path class="cls-1" d="M91.15,59.53c-.26-.15-.59-.06-.74,.2-.15,.26-.06,.59,.2,.74,.26,.15,.59,.06,.74-.2,.15-.26,.06-.59-.2-.74Z"/>
      <path class="cls-1" d="M59.03,53.61c-.15,.26-.06,.59,.2,.74,.26,.15,.59,.06,.74-.2,.15-.26,.06-.59-.2-.74s-.59-.06-.74,.2Z"/>
      <path class="cls-1" d="M82.4,65.26c-.15,.26-.06,.59,.2,.74,.26,.15,.59,.06,.74-.2,.15-.26,.06-.59-.2-.74-.26-.15-.59-.06-.74,.2Z"/>
      <path class="cls-1" d="M96.82,68.47c-.69-.4-1.58-.16-1.98,.53-.4,.69-.16,1.58,.53,1.98,.69,.4,1.58,.16,1.98-.53,.4-.69,.16-1.58-.53-1.98Z"/>
      <path class="cls-1" d="M96.28,61.48c-.81,1.53-1.86,2.92-2.62,4.48-.85,1.73-1.63,4.87-.01,6.44,.37,.48,.92,.84,1.69,1.02,.04,0,.06-.05,.03-.07-2.12-1.3-2.09-3.36-1.34-5.34,.25-.44,.54-.86,.82-1.27,.92-1.34,2.02-2.55,3.02-3.83,.84-1.07,1.78-2.38,2.31-3.78l-2.84-.5c-.27,.97-.57,1.91-1.06,2.84Z"/>
      <path class="cls-1" d="M66.99,58.2c-.15,.26-.06,.59,.2,.74,.26,.15,.59,.06,.74-.2,.15-.26,.06-.59-.2-.74-.26-.15-.59-.06-.74,.2Z"/>
      <path class="cls-1" d="M66.16,56.04c.23-.4,.09-.9-.3-1.13-.4-.23-.9-.09-1.13,.3-.23,.4-.09,.9,.3,1.13,.4,.23,.9,.09,1.13-.3Z"/>
      <path class="cls-1" d="M72.62,56.33c-.15,.26-.06,.59,.2,.74,.26,.15,.59,.06,.74-.2,.15-.26,.06-.59-.2-.74-.26-.15-.59-.06-.74,.2Z"/>
      <path class="cls-1" d="M74.22,61.42c.69,.4,1.58,.16,1.98-.53,.4-.69,.16-1.58-.53-1.98-.69-.4-1.58-.16-1.98,.53-.4,.69-.16,1.58,.53,1.98Z"/>
      <path class="cls-1" d="M82.53,60.1c-.15,.26-.06,.59,.2,.74,.26,.15,.59,.06,.74-.2,.15-.26,.06-.59-.2-.74-.26-.15-.59-.06-.74,.2Z"/>
      <path class="cls-1" d="M85.01,64.29c.4,.23,.9,.09,1.13-.3,.23-.4,.09-.9-.3-1.13s-.9-.09-1.13,.3c-.23,.4-.09,.9,.3,1.13Z"/>
      <path class="cls-1" d="M86.48,77.6c.23-.4,.09-.9-.3-1.13-.4-.23-.9-.09-1.13,.3s-.09,.9,.3,1.13c.4,.23,.9,.09,1.13-.3Z"/>
      <path class="cls-1" d="M92.45,74.29c-.36-.35-.69-.7-1-1.06-.45-.57-.82-1.2-1.12-1.86-.52-1.12-.57-2.36-.92-3.53-.12-.41-.33-.81-.63-1.11,1-.56,1.92-1.44,2.67-2.2,1.07-1.08,1.71-2.4,2-3.88,0-.03,0-.06,0-.08-.33,.68-.96,1.3-1.56,1.42-.47,.1-1.08,.06-1.63-.12-.68-.17-1.19-.54-1.6-1.04-.16-.21-.3-.45-.43-.69-.07-.13-.13-.27-.2-.41,0,0,0,0,0,0-.25-.53-.48-1.1-.77-1.65-.27-.52-.76-1.08-1.33-1.47l-3.08-.54c-.02,.06-.01,.14,.07,.18,1.25,.69,2.31,1.29,3.1,2.54,.54,.86,.68,1.93,1.33,2.72,.71,.87,1.63,1.43,2.64,1.65-.44,.45-.85,.92-1.33,1.33-.83,.71-1.79,1.2-2.76,1.67,.74,.16,1.43,.91,1.68,1.57,.35,.95,.67,2.07,.8,3.19,.06,.26,.12,.49,.2,.7,.11,.31,.27,.6,.45,.88-.33-.02-.66,0-.98,.05-.22,.04-.45,.1-.71,.18-1.04,.45-2.16,.74-3.16,.91-.7,.12-1.69-.1-2.2-.67,.08,1.08,.13,2.15-.07,3.23-.12,.62-.32,1.22-.49,1.82-.69-.77-1.64-1.28-2.75-1.46-1.02-.17-2.01,.25-3.02,.21-1.48-.06-2.53-.68-3.75-1.42-.07-.04-.14-.02-.19,.03l2.01,2.39c.63,.3,1.36,.44,1.94,.41,.62-.02,1.23-.11,1.82-.16,0,0,0,0,0,0,.15,0,.3-.02,.45-.03,.28,0,.55,0,.81,.03,.64,.12,1.21,.37,1.7,.87,.43,.39,.76,.89,.92,1.35,.19,.58-.02,1.44-.45,2.06,.03,0,.05-.02,.07-.04,1.13-.99,1.96-2.2,2.36-3.67,.28-1.03,.58-2.26,.57-3.41,.41,.11,.86,.09,1.27-.01,1.19-.28,2.28-.85,3.52-.96,.72-.07,1.45-.06,2.17,.04,.47,.09,.94,.21,1.42,.34,0,0,0,0,0,0,.56,.2,1.1,.51,1.66,.74-.48-.37-1.02-.68-1.47-1.07,0,0,0,0,0,0Z"/>
      <path class="cls-1" d="M83.46,71.19c-.23,.4-.09,.9,.3,1.13,.4,.23,.9,.09,1.13-.3,.23-.4,.09-.9-.3-1.13-.4-.23-.9-.09-1.13,.3Z"/>
      <path class="cls-1" d="M79.57,80.68c.15-.26,.06-.59-.2-.74-.26-.15-.59-.06-.74,.2-.15,.26-.06,.59,.2,.74,.26,.15,.59,.06,.74-.2Z"/>
      <path class="cls-1" d="M58.38,55.82c-.26-.15-.59-.06-.74,.2s-.06,.59,.2,.74c.26,.15,.59,.06,.74-.2,.15-.26,.06-.59-.2-.74Z"/>
      <path class="cls-1" d="M80.16,70.24c-.26-.15-.59-.06-.74,.2-.15,.26-.06,.59,.2,.74,.26,.15,.59,.06,.74-.2,.15-.26,.06-.59-.2-.74Z"/>
      <path class="cls-1" d="M90.85,78.8c-.69-.4-1.58-.16-1.98,.53-.4,.69-.16,1.58,.53,1.98,.69,.4,1.58,.16,1.98-.53,.4-.69,.16-1.58-.53-1.98Z"/>
      <path class="cls-1" d="M61.34,54.22c.13,.82-.06,1.67,.24,2.47,0,0,0,0,0,0,0,0,0,0,0,0-.85,.13-1.49,.73-2.26,1.02-1.37,.53-2.15-.06-3.11-.76h0c.52,1.08,.96,1.94,.2,3.2-.43,.71-1.12,1.24-1.4,2.05,0,0,0,0,0,0,0,0,0,0,0,0-.74-.44-1.6-.4-2.39-.67-1.39-.48-1.61-1.42-1.9-2.58-.29,1.16-.51,2.1-1.9,2.58-.79,.27-1.66,.23-2.39,.67,0,0,0,0,0,0,0,0,0,0,0,0-.28-.81-.97-1.34-1.4-2.05-.76-1.26-.32-2.12,.2-3.2h0c-.97,.7-1.74,1.28-3.11,.76-.78-.3-1.41-.89-2.26-1.02,0,0,0,0,0,0,0,0,0,0,0,0,.31-.8,.11-1.65,.24-2.47,.23-1.45,1.12-1.83,2.21-2.32l-2.85,.5c-.08,.1-.16,.2-.23,.3-.64,.92-.35,2.07-.59,3.09-.23,1-.78,1.73-1.43,2.43,.93-.21,1.84-.32,2.82-.02,1,.31,1.85,1.13,2.97,1.03,.12-.01,.25-.03,.37-.05,0,.13,0,.25,.02,.38,.1,1.12,1.06,1.81,1.53,2.74,.46,.91,.52,1.83,.47,2.78,.57-.76,1.2-1.42,2.14-1.83,.97-.41,2.14-.33,2.94-1.12,.09-.09,.17-.18,.25-.28,.08,.1,.17,.19,.25,.28,.8,.79,1.97,.71,2.94,1.12,.94,.4,1.57,1.07,2.14,1.83-.05-.95,0-1.86,.47-2.78,.47-.94,1.43-1.63,1.53-2.74,.01-.12,.02-.25,.02-.38,.12,.02,.25,.04,.37,.05,1.12,.09,1.97-.73,2.97-1.03,.98-.3,1.89-.19,2.82,.02-.65-.7-1.19-1.43-1.43-2.43-.24-1.02,.05-2.17-.59-3.09-.07-.1-.15-.2-.23-.3l-2.85-.5c1.09,.49,1.98,.87,2.21,2.32Z"/>
      <path class="cls-1" d="M91.22,76.61c-2.17-.61-4.5,1.63-5.57,3.23-.97,1.44-1.64,3.04-2.57,4.51-.56,.89-1.23,1.63-1.93,2.34l1.85,2.21c.94-1.16,1.61-2.63,2.12-3.89,.61-1.51,1.11-3.07,1.81-4.53,.21-.45,.44-.9,.69-1.34,1.34-1.64,3.1-2.69,5.29-1.51,.04,.02,.07-.03,.04-.06-.54-.57-1.13-.86-1.73-.95Z"/>
      <path class="cls-1" d="M66.34,60.42c-.26-.15-.59-.06-.74,.2-.15,.26-.06,.59,.2,.74,.26,.15,.59,.06,.74-.2,.15-.26,.06-.59-.2-.74Z"/>
      <path class="cls-1" d="M63,59.85c-.4-.23-.9-.09-1.13,.3-.23,.4-.09,.9,.3,1.13,.4,.23,.9,.09,1.13-.3,.23-.4,.09-.9-.3-1.13Z"/>
      <path class="cls-1" d="M66.79,66.43c-.15,.26-.06,.59,.2,.74s.59,.06,.74-.2,.06-.59-.2-.74c-.26-.15-.59-.06-.74,.2Z"/>
      <path class="cls-1" d="M71.99,65.28c-.69-.4-1.58-.16-1.98,.53-.4,.69-.16,1.58,.53,1.98,.69,.4,1.58,.16,1.98-.53,.4-.69,.16-1.58-.53-1.98Z"/>
      <path class="cls-1" d="M75.75,72.93c-.26-.15-.59-.06-.74,.2s-.06,.59,.2,.74c.26,.15,.59,.06,.74-.2,.15-.26,.06-.59-.2-.74Z"/>
      <path class="cls-1" d="M79.88,73.19c-.4-.23-.9-.09-1.13,.3-.23,.4-.09,.9,.3,1.13,.4,.23,.9,.09,1.13-.3,.23-.4,.09-.9-.3-1.13Z"/>
      <path class="cls-1" d="M74.65,71.47c.55-.04,1.1,.02,1.55,.23,.57,.26,1.06,.93,1.1,1.58,.82-1.4,1.38-3.04,.8-4.59,.23,.05,.47,.07,.73,.07,1.87,.02,3.27,.48,5.03,1.01,.09,.03,.19-.01,.25-.08,.03-.09,.02-.19-.06-.26-1.34-1.26-2.45-2.24-3.4-3.85-.13-.22-.27-.42-.43-.6,1.63-.27,2.77-1.57,3.57-2.98-.58,.29-1.4,.2-1.92-.16-.41-.29-.74-.73-.98-1.23-.34-.62-.55-1.35-.78-2.06-.17-.68-.34-1.35-.67-1.99-.23-.45-.6-.89-1.03-1.27l-3.4-.6c.22,.1,.44,.22,.63,.34,1.89,.99,2.95,2.5,3.53,4.71,.3,1.14,.73,2.11,1.54,2.79-.3,.18-.58,.4-.88,.58-.49,.36-1.1,.56-1.72,.62-.31,.03-.7,.05-1.08,0,.02,.03,.04,.05,.07,.07,.94,.62,1.7,1.39,2.32,2.33,.25,.38,.43,.78,.57,1.19-.43,.08-.86,.13-1.31,.1-1.13-.07-2.17-.34-3.18-.85-.03-.02-.07-.02-.1-.02,.23,.31,.41,.66,.54,.94,.26,.56,.39,1.19,.32,1.79,0,.35-.06,.7-.06,1.05-1-.35-2.05-.25-3.19,.06-2.2,.6-4.03,.44-5.84-.7-.21-.11-.41-.23-.61-.38,.11,.22,.2,.45,.26,.67,.81,1.98,.65,3.81-.32,5.87-.5,1.07-.79,2.09-.62,3.13-.34-.06-.7-.07-1.04-.12-.61-.04-1.2-.28-1.71-.63-.26-.18-.57-.41-.83-.69,0,.03,0,.07,0,.1,.32,1.08,.41,2.15,.28,3.28-.05,.45-.17,.87-.33,1.28-.38-.21-.74-.46-1.07-.77-.82-.78-1.44-1.65-1.89-2.69-.01-.03-.04-.06-.06-.08-.02,.38-.11,.77-.19,1.06-.17,.59-.46,1.16-.9,1.58-.23,.27-.49,.5-.72,.77-.54-.91-1.41-1.51-2.48-2-2.08-.96-3.37-2.26-4.02-4.29-.09-.22-.16-.44-.23-.68-.06,.24-.14,.47-.23,.68-.65,2.04-1.95,3.34-4.02,4.29-1.07,.49-1.95,1.09-2.48,2-.23-.26-.49-.5-.72-.77-.44-.42-.74-.99-.9-1.58-.08-.3-.17-.68-.19-1.06-.02,.02-.05,.05-.06,.08-.45,1.04-1.07,1.91-1.89,2.69-.33,.31-.69,.56-1.07,.77-.15-.41-.27-.82-.33-1.28-.13-1.12-.04-2.19,.28-3.28,.01-.04,.01-.07,0-.1-.26,.28-.58,.52-.83,.69-.51,.35-1.1,.59-1.71,.63-.35,.06-.7,.07-1.04,.12,.18-1.04-.11-2.06-.62-3.13-.98-2.07-1.13-3.9-.32-5.87,.07-.22,.16-.45,.26-.67-.2,.14-.41,.27-.61,.38-1.81,1.14-3.64,1.3-5.84,.7-1.14-.31-2.19-.42-3.19-.06,0-.35-.06-.7-.06-1.05-.07-.61,.07-1.23,.32-1.79,.13-.28,.31-.63,.54-.94-.03,0-.07,0-.1,.02-1.01,.51-2.05,.78-3.18,.85-.46,.03-.89-.02-1.31-.1,.14-.41,.32-.81,.57-1.19,.62-.94,1.38-1.71,2.32-2.33,.03-.02,.05-.05,.07-.07-.38,.04-.77,.03-1.08,0-.61-.06-1.22-.25-1.72-.62-.3-.18-.58-.4-.88-.58,.81-.69,1.24-1.65,1.54-2.79,.58-2.21,1.64-3.71,3.53-4.71,.2-.13,.41-.24,.63-.34l-3.4,.6c-.44,.38-.8,.82-1.03,1.27-.33,.64-.5,1.31-.67,1.99-.23,.71-.43,1.44-.78,2.06-.24,.5-.57,.94-.98,1.23-.51,.36-1.34,.46-1.92,.16,.8,1.41,1.94,2.71,3.57,2.98-.15,.18-.3,.37-.43,.6-.95,1.62-2.05,2.59-3.4,3.85-.07,.07-.08,.17-.06,.26,.06,.07,.16,.11,.25,.08,1.76-.53,3.16-1,5.03-1.01,.26,0,.5-.03,.73-.07-.58,1.55-.02,3.19,.8,4.59,.04-.65,.53-1.31,1.1-1.58,.45-.21,1-.28,1.55-.23,.71,.01,1.44,.2,2.17,.36,.67,.19,1.34,.38,2.06,.41,.5,.02,1.07-.07,1.61-.26-.09,.57-.09,1.14,.02,1.63,.15,.7,.46,1.33,.77,1.96,.28,.7,.59,1.38,.73,2.08,.14,.53,.17,1.09,.04,1.57-.16,.61-.73,1.21-1.36,1.36,1.52,.56,3.23,.83,4.65-.01,0,.23,.01,.48,.05,.73,.31,1.85,.1,3.3-.12,5.13-.01,.1,.04,.18,.12,.23,.09,.01,.19-.02,.25-.1,1.01-1.54,1.78-2.8,3.2-4.01,.2-.17,.37-.34,.51-.53,.55,1.56,2.03,2.46,3.56,3-.39-.52-.44-1.35-.17-1.92,.21-.45,.59-.86,1.04-1.18,.55-.45,1.23-.77,1.89-1.12,.64-.28,1.27-.57,1.85-1.01,.4-.31,.77-.74,1.07-1.24,.3,.49,.67,.93,1.07,1.24,.57,.44,1.21,.72,1.85,1.01,.66,.35,1.34,.68,1.89,1.12,.45,.32,.83,.73,1.04,1.18,.27,.57,.22,1.4-.17,1.92,1.53-.55,3.01-1.44,3.56-3,.15,.18,.32,.36,.51,.53,1.43,1.22,2.2,2.47,3.2,4.01,.05,.08,.15,.11,.25,.1,.08-.05,.14-.14,.12-.23-.22-1.83-.43-3.29-.12-5.13,.04-.26,.06-.5,.05-.73,1.42,.84,3.13,.58,4.65,.01-.63-.15-1.2-.75-1.36-1.36-.13-.48-.1-1.03,.04-1.57,.13-.7,.45-1.38,.73-2.08,.31-.63,.61-1.25,.77-1.96,.11-.49,.11-1.06,.02-1.63,.55,.19,1.11,.28,1.61,.26,.72-.03,1.39-.22,2.06-.41,.74-.16,1.46-.35,2.17-.36Z"/>
      <path class="cls-1" d="M92.66,36.43c-.45,.08-.75,.51-.67,.96,.08,.45,.51,.75,.96,.67,.45-.08,.75-.51,.67-.96-.08-.45-.51-.75-.96-.67Z"/>
      <path class="cls-1" d="M89.55,42.77c.45-.08,.75-.51,.67-.96-.08-.45-.51-.75-.96-.67-.45,.08-.75,.51-.67,.96,.08,.45,.51,.75,.96,.67Z"/>
      <path class="cls-1" d="M87.55,31.4c-.3,.05-.49,.34-.44,.63,.05,.3,.34,.49,.63,.44,.3-.05,.49-.34,.44-.63-.05-.3-.34-.49-.63-.44Z"/>
      <path class="cls-1" d="M59.77,47.95c.3-.05,.49-.34,.44-.63s-.34-.49-.63-.44c-.3,.05-.49,.34-.44,.63,.05,.3,.34,.49,.63,.44Z"/>
      <path class="cls-1" d="M85.16,41.86c.3-.05,.49-.34,.44-.63s-.34-.49-.63-.44c-.3,.05-.49,.34-.44,.63,.05,.3,.34,.49,.63,.44Z"/>
      <path class="cls-1" d="M98.14,37.47c.79-.14,1.32-.89,1.18-1.68-.14-.79-.89-1.32-1.68-1.18-.79,.14-1.32,.89-1.18,1.68,.14,.79,.89,1.32,1.68,1.18Z"/>
      <path class="cls-1" d="M92.73,29.6c.37,1.69,.46,3.43,.87,5.11,.46,1.87,1.88,4.78,4.13,4.94,.59,.13,1.24,.05,1.95-.3,.04-.02,.02-.08-.02-.07-2.46,.36-3.76-1.23-4.45-3.23-.09-.5-.14-1.01-.19-1.5-.16-1.62-.1-3.25-.15-4.88-.04-1.36-.17-2.97-.66-4.38l-2.5,1.44c.41,.91,.79,1.83,1.02,2.86Z"/>
      <path class="cls-1" d="M68.82,46.36c.3-.05,.49-.34,.44-.63-.05-.3-.34-.49-.63-.44s-.49,.34-.44,.63c.05,.3,.34,.49,.63,.44Z"/>
      <path class="cls-1" d="M65.49,45.75c.45-.08,.75-.51,.67-.96-.08-.45-.51-.75-.96-.67-.45,.08-.75,.51-.67,.96s.51,.75,.96,.67Z"/>
      <path class="cls-1" d="M71.74,40.23c-.3,.05-.49,.34-.44,.63s.34,.49,.63,.44c.3-.05,.49-.34,.44-.63-.05-.3-.34-.49-.63-.44Z"/>
      <path class="cls-1" d="M75.79,43.72c.79-.14,1.32-.89,1.18-1.68-.14-.79-.89-1.32-1.68-1.18-.79,.14-1.32,.89-1.18,1.68,.14,.79,.89,1.32,1.68,1.18Z"/>
      <path class="cls-1" d="M81.94,37.82c.3-.05,.49-.34,.44-.63s-.34-.49-.63-.44-.49,.34-.44,.63,.34,.49,.63,.44Z"/>
      <path class="cls-1" d="M85.91,38.99c.45-.08,.75-.51,.67-.96-.08-.45-.51-.75-.96-.67-.45,.08-.75,.51-.67,.96,.08,.45,.51,.75,.96,.67Z"/>
      <path class="cls-1" d="M94.62,47.57c-.45,.08-.75,.51-.67,.96,.08,.45,.51,.75,.96,.67,.45-.08,.75-.51,.67-.96-.08-.45-.51-.75-.96-.67Z"/>
      <path class="cls-1" d="M89.83,44.31c-.45,.08-.75,.51-.67,.96s.51,.75,.96,.67c.45-.08,.75-.51,.67-.96-.08-.45-.51-.75-.96-.67Z"/>
      <path class="cls-1" d="M91.83,55.68c.3-.05,.49-.34,.44-.63-.05-.3-.34-.49-.63-.44s-.49,.34-.44,.63c.05,.3,.34,.49,.63,.44Z"/>
      <path class="cls-1" d="M60.06,49.62c-.3,.05-.49,.34-.44,.63s.34,.49,.63,.44c.3-.05,.49-.34,.44-.63s-.34-.49-.63-.44Z"/>
      <path class="cls-1" d="M86.01,46.67c-.3,.05-.49,.34-.44,.63,.05,.3,.34,.49,.63,.44s.49-.34,.44-.63c-.05-.3-.34-.49-.63-.44Z"/>
      <path class="cls-1" d="M101.39,47.54c-.14-.79-.89-1.32-1.68-1.18-.79,.14-1.32,.89-1.18,1.68,.14,.79,.89,1.32,1.68,1.18,.79-.14,1.32-.89,1.18-1.68Z"/>
      <path class="cls-1" d="M62.29,52.2c.92-.65,1.04-1.82,1.61-2.7,.56-.86,1.32-1.36,2.17-1.79-.94-.12-1.83-.33-2.65-.94-.84-.63-1.35-1.69-2.44-1.99-.12-.03-.24-.06-.37-.08,.04-.12,.08-.24,.11-.36,.29-1.09-.38-2.06-.5-3.1-.12-1.02,.14-1.89,.51-2.77-.8,.52-1.62,.93-2.64,.98-1.05,.06-2.12-.42-3.14,.04-.11,.05-.22,.11-.33,.17l-.99,2.72c.67-.99,1.2-1.8,2.67-1.78,.83,.01,1.63,.35,2.48,.19,0,0,0,0,0,0,0,0,0,0,0,0-.02,.86,.46,1.59,.62,2.41,.28,1.44-.43,2.1-1.29,2.94h0s0,0,0,0c1.15-.33,2.07-.61,3.19,.35,.63,.55,1.02,1.32,1.78,1.74,0,0,0,0,0,0,0,0,0,0,0,0-.56,.65-.67,1.51-1.07,2.24-.71,1.29-1.68,1.34-2.87,1.42l2.85,.5c.11-.06,.22-.13,.32-.2Z"/>
      <path class="cls-1" d="M97.77,50.16c-.12-.48-.24-.97-.33-1.47-.03-2.12,.65-4.06,3.08-4.56,.04,0,.04-.07,0-.07-.79-.09-1.42,.07-1.94,.39-2.06,.92-2.4,4.14-2.19,6.06,.19,1.72,.7,3.39,.93,5.1,.14,1.04,.1,2.04,.02,3.04l2.84,.5c-.03-1.5-.46-3.05-.88-4.34-.51-1.54-1.12-3.06-1.53-4.64Z"/>
      <path class="cls-1" d="M69.11,48.03c-.3,.05-.49,.34-.44,.63,.05,.3,.34,.49,.63,.44,.3-.05,.49-.34,.44-.63-.05-.3-.34-.49-.63-.44Z"/>
      <path class="cls-1" d="M70.65,42.04c-.79-.78-1.93-1.36-3.03-1.39,.52-.96,.58-2.25,.31-3.32-.37-1.42-1.17-2.86-1.06-4.37,.05-.65,.17-1.28,.44-1.87,.2-.45,.49-.85,.7-1.29-.4,.28-.75,.63-1.15,.91-.54,.37-1.14,.6-1.77,.76-1.46,.37-3.02-.17-4.48-.28-1.1-.09-2.36,.2-3.21,.88-.22-1.07-1-2.1-1.9-2.74-1.2-.85-2.73-1.44-3.62-2.66-.38-.53-.69-1.09-.87-1.72-.13-.47-.18-.97-.3-1.44-.12,.47-.16,.96-.3,1.44-.18,.63-.49,1.19-.87,1.72-.88,1.22-2.42,1.81-3.62,2.66-.9,.64-1.67,1.67-1.9,2.74-.86-.68-2.11-.96-3.21-.88-1.47,.11-3.02,.65-4.48,.28-.63-.16-1.23-.39-1.77-.76-.41-.28-.76-.63-1.15-.91,.21,.44,.49,.84,.7,1.29,.27,.59,.39,1.23,.44,1.87,.11,1.51-.69,2.94-1.06,4.37-.28,1.07-.21,2.36,.31,3.32-1.09,.03-2.24,.62-3.03,1.39-1.05,1.03-1.89,2.44-3.25,3.1-.58,.28-1.19,.49-1.84,.56-.49,.05-.98,0-1.47,.04,.44,.2,.92,.33,1.37,.54,.59,.28,1.09,.69,1.54,1.15,1.05,1.08,1.36,2.7,2,4.02,.48,1,1.35,1.94,2.37,2.34-.81,.73-1.32,1.91-1.42,3.01-.14,1.46,.12,3.09-.5,4.46-.27,.59-.6,1.14-1.05,1.61-.34,.35-.75,.64-1.1,.98,.47-.13,.92-.34,1.4-.46,.63-.16,1.27-.17,1.92-.11,1.5,.15,2.78,1.19,4.12,1.8,1.01,.46,2.28,.62,3.32,.27-.16,1.08,.22,2.31,.85,3.22,.83,1.21,2.07,2.29,2.49,3.74,.18,.62,.28,1.26,.23,1.91-.04,.49-.16,.97-.21,1.45,.28-.4,.48-.85,.77-1.25,.38-.53,.87-.95,1.4-1.31,1.25-.85,2.89-.87,4.31-1.27,1.07-.3,2.14-1,2.72-1.92,.58,.93,1.65,1.63,2.72,1.92,1.42,.39,3.06,.42,4.31,1.27,.54,.36,1.02,.79,1.4,1.31,.29,.4,.5,.85,.77,1.25-.05-.49-.18-.96-.21-1.45-.05-.65,.05-1.29,.23-1.91,.41-1.45,1.65-2.53,2.49-3.74,.63-.91,1-2.14,.85-3.22,1.04,.34,2.31,.18,3.32-.27,1.34-.61,2.61-1.65,4.12-1.8,.64-.07,1.29-.05,1.92,.11,.48,.12,.93,.33,1.4,.46-.35-.34-.75-.62-1.1-.98-.45-.47-.79-1.02-1.05-1.61-.62-1.38-.36-3-.5-4.46-.11-1.1-.61-2.28-1.42-3.01,1.01-.41,1.89-1.35,2.37-2.34,.63-1.33,.94-2.94,2-4.02,.45-.46,.95-.87,1.54-1.15,.44-.21,.92-.34,1.37-.54-.49-.04-.98,0-1.47-.04-.65-.07-1.26-.27-1.84-.56-1.36-.66-2.2-2.07-3.25-3.1Zm1.6,4.65c-.1,.22-.19,.44-.28,.67-.44,1.21-.73,2.41-1.37,3.54-.52,.92-1.42,1.9-2.44,2.25-.28,.1-.55,.15-.83,.19h0c.25,.13,.49,.28,.71,.47,.84,.68,1.34,1.91,1.52,2.95,.22,1.28,.08,2.51,.08,3.8,0,.24,.01,.48,.03,.72,.01,.04,.02,.07,.03,.11-.04,0-.07,.01-.11,.02-.22,.11-.43,.21-.64,.34-1.12,.64-2.11,1.38-3.33,1.83-.99,.36-2.3,.54-3.31,.16-.27-.1-.52-.24-.76-.38h0s0,0,0,0h0c.1,.26,.19,.53,.25,.81,.2,1.06-.2,2.32-.73,3.23-.65,1.12-1.55,1.97-2.38,2.96-.16,.19-.3,.38-.44,.57-.01,.03-.03,.07-.04,.1-.03-.02-.07-.04-.1-.05-.23-.06-.47-.11-.71-.15-1.27-.23-2.5-.3-3.73-.74-.99-.36-2.11-1.07-2.64-2.01-.14-.25-.25-.52-.33-.78-.09,.27-.19,.53-.33,.78-.53,.94-1.65,1.65-2.64,2.01-1.22,.44-2.46,.51-3.73,.74-.24,.04-.47,.1-.71,.15-.03,.02-.07,.04-.1,.05-.01-.03-.03-.07-.04-.1-.14-.19-.29-.39-.44-.57-.83-.99-1.73-1.84-2.38-2.96-.53-.91-.93-2.17-.73-3.23,.06-.29,.14-.55,.25-.81h0s0,0,0,0c-.24,.15-.49,.28-.76,.38-1.01,.39-2.32,.21-3.31-.16-1.22-.45-2.21-1.19-3.33-1.83-.21-.12-.42-.23-.64-.34-.04,0-.07-.02-.11-.02,.01-.04,.02-.07,.03-.11,.02-.24,.03-.48,.03-.72,0-1.29-.14-2.52,.08-3.8,.18-1.04,.68-2.27,1.52-2.95,.23-.18,.47-.33,.71-.47h0c-.28-.04-.55-.1-.83-.19-1.02-.35-1.91-1.33-2.44-2.25-.65-1.13-.93-2.33-1.37-3.54-.08-.23-.18-.45-.28-.67-.02-.03-.05-.06-.07-.09,.03-.02,.06-.04,.09-.06,.17-.17,.33-.35,.49-.53,.83-.98,1.51-2.02,2.5-2.86,.81-.68,1.98-1.3,3.06-1.28,.29,0,.57,.04,.84,.1-.19-.21-.36-.43-.51-.68-.55-.93-.61-2.25-.42-3.29,.23-1.28,.79-2.39,1.22-3.6,.08-.23,.15-.46,.22-.69,0-.04,0-.07,0-.11,.04,0,.07,.01,.11,.02,.24-.03,.48-.05,.72-.1,1.27-.22,2.45-.58,3.75-.58,1.06,0,2.35,.28,3.17,.99,.22,.19,.41,.4,.58,.62,0-.28,0-.56,.05-.85,.17-1.07,.98-2.11,1.79-2.79,1-.83,2.14-1.32,3.25-1.97,.21-.12,.41-.25,.61-.39,.03-.03,.05-.06,.07-.08,.03,.03,.05,.06,.07,.08,.2,.13,.4,.27,.61,.39,1.11,.64,2.25,1.14,3.25,1.97,.81,.68,1.62,1.72,1.79,2.79,.05,.29,.06,.57,.05,.85,.17-.22,.36-.43,.58-.62,.82-.71,2.11-.99,3.17-.99,1.3,0,2.49,.36,3.75,.58,.24,.04,.48,.07,.72,.1,.04,0,.07-.01,.11-.02,0,.04,0,.07,0,.11,.07,.23,.14,.46,.22,.69,.44,1.21,.99,2.32,1.22,3.6,.19,1.04,.13,2.36-.42,3.29-.15,.25-.32,.47-.51,.68,.27-.06,.55-.1,.84-.1,1.08-.02,2.25,.6,3.06,1.28,.99,.84,1.67,1.87,2.5,2.86,.16,.19,.32,.36,.49,.53,.03,.02,.06,.04,.09,.06-.02,.03-.05,.06-.07,.09Z"/>
      <path class="cls-1" d="M67.15,50.41c-.08-.45-.51-.75-.96-.67-.45,.08-.75,.51-.67,.96,.08,.45,.51,.75,.96,.67,.45-.08,.75-.51,.67-.96Z"/>
      <path class="cls-1" d="M73.95,52.79c.3-.05,.49-.34,.44-.63-.05-.3-.34-.49-.63-.44s-.49,.34-.44,.63c.05,.3,.34,.49,.63,.44Z"/>
      <path class="cls-1" d="M75.39,49.8c.14,.79,.89,1.32,1.68,1.18,.79-.14,1.32-.89,1.18-1.68-.14-.79-.89-1.32-1.68-1.18-.79,.14-1.32,.89-1.18,1.68Z"/>
      <path class="cls-1" d="M84.36,51.56c-.3,.05-.49,.34-.44,.63,.05,.3,.34,.49,.63,.44,.3-.05,.49-.34,.44-.63-.05-.3-.34-.49-.63-.44Z"/>
      <path class="cls-1" d="M87.69,49.11c-.45,.08-.75,.51-.67,.96,.08,.45,.51,.75,.96,.67s.75-.51,.67-.96c-.08-.45-.51-.75-.96-.67Z"/>
      <path class="cls-1" d="M81.14,52.82c.46-.59,.9-1.21,1.44-1.67,.39-.39,.86-.69,1.34-.82,.6-.16,1.41,.03,1.86,.5-.27-1.6-.9-3.21-2.34-4.02,.21-.11,.41-.25,.61-.41,1.45-1.19,2.81-1.74,4.51-2.46,.09-.04,.14-.13,.14-.22-.04-.09-.11-.16-.21-.16-1.84-.1-3.31-.14-5.08-.77-.24-.09-.48-.15-.71-.18,1.08-1.25,1.11-2.99,.82-4.58-.26,.59-.95,1.05-1.57,1.11-.5,.04-1.04-.08-1.54-.31-.66-.25-1.28-.68-1.92-1.08-.57-.41-1.13-.82-1.8-1.09-.47-.19-1.03-.3-1.61-.31l-2.99,1.73c.24-.06,.47-.11,.71-.14,2.09-.46,3.86,.02,5.73,1.34,.96,.68,1.92,1.14,2.98,1.15-.12,.33-.19,.67-.3,1.01-.15,.59-.49,1.13-.92,1.57-.22,.22-.51,.49-.82,.7,.03,.01,.06,.02,.1,.01,1.12-.13,2.19-.03,3.28,.29,.44,.13,.83,.32,1.2,.54-.28,.33-.58,.65-.94,.92-.91,.67-1.88,1.13-2.98,1.39-.04,0-.07,.03-.09,.05,.37,.09,.73,.24,1.01,.37,.56,.27,1.06,.66,1.4,1.17,.22,.27,.41,.57,.63,.84-.99,.37-1.73,1.13-2.4,2.1-1.3,1.88-2.81,2.93-4.93,3.22-.23,.05-.47,.08-.71,.11l3.4,.6c.54-.21,1.03-.5,1.4-.84,.53-.49,.92-1.06,1.31-1.64Z"/>
      <path class="cls-1" d="M73.85,12.74c-.29,.35-.25,.87,.1,1.17,.35,.29,.87,.25,1.17-.1,.29-.35,.25-.87-.1-1.17-.35-.29-.87-.25-1.17,.1Z"/>
      <path class="cls-1" d="M75.55,19.59c.29-.35,.25-.87-.1-1.17-.35-.29-.87-.25-1.17,.1-.29,.35-.25,.87,.1,1.17,.35,.29,.87,.25,1.17-.1Z"/>
      <path class="cls-1" d="M66.71,12.17c-.19,.23-.16,.57,.07,.77,.23,.19,.57,.16,.77-.07s.16-.57-.07-.77c-.23-.19-.57-.16-.77,.07Z"/>
      <path class="cls-1" d="M55.23,42c-.19,.23-.16,.57,.07,.77,.23,.19,.57,.16,.77-.07,.19-.23,.16-.57-.07-.77-.23-.19-.57-.16-.77,.07Z"/>
      <path class="cls-1" d="M71.6,21.71c.19-.23,.16-.57-.07-.77-.23-.19-.57-.16-.77,.07-.19,.23-.16,.57,.07,.77,.23,.19,.57,.16,.77-.07Z"/>
      <path class="cls-1" d="M78.72,10.01c.52-.61,.44-1.53-.18-2.05-.61-.52-1.53-.44-2.05,.18-.52,.61-.44,1.53,.18,2.05,.61,.52,1.53,.44,2.05-.18Z"/>
      <path class="cls-1" d="M69.52,7.46c1.37,1.06,2.55,2.33,3.95,3.36,1.55,1.14,4.51,2.45,6.34,1.13,.53-.28,.99-.76,1.3-1.48,.02-.04-.03-.07-.06-.04-1.65,1.86-3.67,1.48-5.49,.39-.39-.33-.76-.68-1.11-1.02-1.16-1.14-2.17-2.43-3.25-3.64-.91-1.01-2.04-2.16-3.32-2.93l-.99,2.71c.9,.43,1.79,.9,2.62,1.54Z"/>
      <path class="cls-1" d="M61.97,35.67c.19-.23,.16-.57-.07-.77-.23-.19-.57-.16-.77,.07-.19,.23-.16,.57,.07,.77,.23,.19,.57,.16,.77-.07Z"/>
      <path class="cls-1" d="M59.03,37.34c.29-.35,.25-.87-.1-1.17-.35-.29-.87-.25-1.17,.1-.29,.35-.25,.87,.1,1.17,.35,.29,.87,.25,1.17-.1Z"/>
      <path class="cls-1" d="M61.11,29.79c.19-.23,.16-.57-.07-.77s-.57-.16-.77,.07c-.19,.23-.16,.57,.07,.77,.23,.19,.57,.16,.77-.07Z"/>
      <path class="cls-1" d="M65.63,29.16c.52-.61,.44-1.53-.18-2.05-.61-.52-1.53-.44-2.05,.18-.52,.61-.44,1.53,.18,2.05,.61,.52,1.53,.44,2.05-.18Z"/>
      <path class="cls-1" d="M66.54,20.69c.19-.23,.16-.57-.07-.77s-.57-.16-.77,.07c-.19,.23-.16,.57,.07,.77,.23,.19,.57,.16,.77-.07Z"/>
      <path class="cls-1" d="M70.33,19.04c.29-.35,.25-.87-.1-1.17-.35-.29-.87-.25-1.17,.1-.29,.35-.25,.87,.1,1.17,.35,.29,.87,.25,1.17-.1Z"/>
      <path class="cls-1" d="M82.62,21.18c.35,.29,.87,.25,1.17-.1,.29-.35,.25-.87-.1-1.17-.35-.29-.87-.25-1.17,.1-.29,.35-.25,.87,.1,1.17Z"/>
      <path class="cls-1" d="M78.02,21.66c.29-.35,.25-.88-.1-1.17-.35-.29-.87-.25-1.17,.1-.29,.35-.25,.87,.1,1.17,.35,.29,.87,.25,1.17-.1Z"/>
      <path class="cls-1" d="M84.76,27.31c-.19,.23-.16,.57,.07,.77,.23,.19,.57,.16,.77-.07,.19-.23,.16-.57-.07-.77-.23-.19-.57-.16-.77,.07Z"/>
      <path class="cls-1" d="M58.2,44.5c.19-.23,.16-.57-.07-.77s-.57-.16-.77,.07-.16,.57,.07,.77c.23,.19,.57,.16,.77-.07Z"/>
      <path class="cls-1" d="M75.34,24.85c-.19,.23-.16,.57,.07,.77,.23,.19,.57,.16,.77-.07,.19-.23,.16-.57-.07-.77s-.57-.16-.77,.07Z"/>
      <path class="cls-1" d="M87.86,17.68c.52-.61,.44-1.53-.18-2.05-.61-.52-1.53-.44-2.05,.18-.52,.61-.44,1.53,.18,2.05,.61,.52,1.53,.44,2.05-.18Z"/>
      <path class="cls-1" d="M89.74,24.43c.78,.71,1.39,1.49,1.97,2.31l2.5-1.44c-.98-1.13-2.31-2.04-3.47-2.76-1.38-.86-2.83-1.62-4.15-2.57-.4-.29-.81-.59-1.2-.92-1.39-1.6-2.11-3.52-.57-5.47,.03-.03-.01-.08-.05-.05-.66,.44-1.05,.96-1.24,1.54-.98,2.03,.82,4.72,2.21,6.05,1.25,1.2,2.71,2.15,3.99,3.31Z"/>
      <path class="cls-1" d="M64.11,37.46c.19-.23,.16-.57-.07-.77-.23-.19-.57-.16-.77,.07-.19,.23-.16,.57,.07,.77,.23,.19,.57,.16,.77-.07Z"/>
      <path class="cls-1" d="M62.24,41.11c.35,.29,.87,.25,1.17-.1,.29-.35,.25-.87-.1-1.17-.35-.29-.87-.25-1.17,.1-.29,.35-.25,.87,.1,1.17Z"/>
      <path class="cls-1" d="M69.21,36.59c-.19,.23-.16,.57,.07,.77,.23,.19,.57,.16,.77-.07,.19-.23,.16-.57-.07-.77-.23-.19-.57-.16-.77,.07Z"/>
      <path class="cls-1" d="M71.27,33.9c.52-.61,.44-1.53-.18-2.05-.61-.52-1.53-.44-2.05,.18-.52,.61-.44,1.53,.18,2.05,.61,.52,1.53,.44,2.05-.18Z"/>
      <path class="cls-1" d="M77.23,29.66c-.19,.23-.16,.57,.07,.77,.23,.19,.57,.16,.77-.07,.19-.23,.16-.57-.07-.77-.23-.19-.57-.16-.77,.07Z"/>
      <path class="cls-1" d="M78.3,26.81c.35,.29,.87,.25,1.17-.1,.29-.35,.25-.87-.1-1.17-.35-.29-.87-.25-1.17,.1-.29,.35-.25,.87,.1,1.17Z"/>
      <path class="cls-1" d="M59.6,26.65c1.31-1.69,2.97-2.47,5.25-2.66,1.17-.1,2.2-.36,3.02-1.03,.12,.33,.29,.64,.41,.97,.27,.55,.36,1.18,.31,1.8-.02,.31-.07,.7-.18,1.07,.03-.01,.06-.03,.09-.05,.78-.82,1.66-1.43,2.7-1.88,.42-.18,.84-.29,1.27-.36,0,.43-.02,.87-.13,1.31-.26,1.1-.71,2.08-1.39,2.98-.02,.03-.03,.06-.04,.09,.34-.17,.72-.29,1.02-.37,.6-.15,1.24-.18,1.82,0,.35,.06,.68,.18,1.02,.24-.52,.92-.6,1.98-.49,3.15,.21,2.28-.27,4.05-1.71,5.63-.14,.19-.3,.36-.48,.54l2.99-1.73c.28-.5,.47-1.04,.54-1.54,.1-.71,.02-1.41-.05-2.1-.03-.75-.09-1.5,.03-2.2,.05-.55,.22-1.08,.5-1.49,.36-.51,1.1-.89,1.75-.81-1.24-1.05-2.75-1.89-4.38-1.58,.09-.22,.15-.45,.2-.71,.34-1.84,1.04-3.14,1.87-4.78,.04-.09,.02-.19-.04-.26-.08-.04-.19-.05-.26,0-1.47,1.11-2.63,2.02-4.38,2.67-.24,.09-.46,.2-.66,.32,.02-1.65-1.07-3-2.32-4.04,.19,.62-.05,1.42-.49,1.86-.35,.35-.84,.6-1.38,.75-.67,.23-1.42,.3-2.16,.41-.7,.05-1.39,.1-2.08,.32-.48,.15-.98,.43-1.43,.8l-1.18,3.25c.14-.2,.29-.39,.45-.56Z"/>
    </g>
  </g>
</svg>