<?xml version="1.0" encoding="UTF-8"?>
<svg id="Layer_2" data-name="Layer 2" xmlns="http://www.w3.org/2000/svg" viewBox="0 0 636.6 636.61">
  <defs>
    <style>
      .cls-1 {
        stroke-miterlimit: 10;
      }

      .cls-1, .cls-2 {
        fill: none;
        stroke: #000;
      }

      .cls-3 {
        fill: #f6f6f6;
      }

      .cls-2 {
        stroke-linecap: round;
        stroke-linejoin: round;
        stroke-width: 5px;
      }

      .cls-4 {
        opacity: .3;
      }
    </style>
  </defs>
  <g id="Layer_1-2" data-name="Layer 1">
    <rect class="cls-3" width="636.6" height="636.61"/>
    <g>
      <line class="cls-2" x1="231.61" y1="145.03" x2="216.36" y2="130.73"/>
      <line class="cls-2" x1="216.83" y1="145.51" x2="231.14" y2="130.25"/>
    </g>
    <g>
      <line class="cls-2" x1="249.13" y1="364.47" x2="233.88" y2="350.16"/>
      <line class="cls-2" x1="234.35" y1="364.94" x2="248.66" y2="349.69"/>
    </g>
    <g>
      <line class="cls-2" x1="63.55" y1="487.07" x2="48.29" y2="472.76"/>
      <line class="cls-2" x1="48.77" y1="487.54" x2="63.07" y2="472.29"/>
    </g>
    <g>
      <line class="cls-2" x1="56.89" y1="124.15" x2="41.63" y2="109.85"/>
      <line class="cls-2" x1="42.11" y1="124.63" x2="56.41" y2="109.38"/>
    </g>
    <g>
      <line class="cls-2" x1="599.31" y1="144.66" x2="584.06" y2="130.35"/>
      <line class="cls-2" x1="584.53" y1="145.13" x2="598.83" y2="129.88"/>
    </g>
    <g>
      <line class="cls-2" x1="419.37" y1="222.46" x2="404.12" y2="208.16"/>
      <line class="cls-2" x1="404.59" y1="222.94" x2="418.9" y2="207.69"/>
    </g>
    <g>
      <line class="cls-2" x1="493.73" y1="392.27" x2="478.48" y2="377.97"/>
      <line class="cls-2" x1="478.95" y1="392.75" x2="493.26" y2="377.5"/>
    </g>
    <g>
      <line class="cls-2" x1="481.89" y1="530.6" x2="466.64" y2="516.3"/>
      <line class="cls-2" x1="467.11" y1="531.08" x2="481.41" y2="515.83"/>
    </g>
    <polygon class="cls-2" points="344.95 167.93 334.45 149.76 323.98 167.94 313.5 186.11 334.48 186.09 355.45 186.08 344.95 167.93"/>
    <polygon class="cls-2" points="310.23 389.93 299.73 371.77 289.26 389.94 278.78 408.11 299.76 408.1 320.73 408.09 310.23 389.93"/>
    <polygon class="cls-2" points="430.58 458.1 420.08 439.94 409.61 458.11 399.13 476.29 420.1 476.27 441.08 476.26 430.58 458.1"/>
    <polygon class="cls-2" points="499.8 318.67 505.21 298.4 484.96 303.85 464.7 309.29 479.54 324.11 494.38 338.94 499.8 318.67"/>
    <polygon class="cls-2" points="154.87 83.38 160.29 63.11 140.03 68.56 119.77 74 134.62 88.82 149.46 103.65 154.87 83.38"/>
    <polygon class="cls-2" points="140.51 521.29 145.92 501.02 125.67 506.47 105.41 511.91 120.25 526.73 135.09 541.56 140.51 521.29"/>
    <polygon class="cls-2" points="521.05 106.02 539.21 95.52 521.04 85.05 502.86 74.57 502.88 95.54 502.89 116.52 521.05 106.02"/>
    <polygon class="cls-2" points="140.04 315.57 158.2 305.07 140.03 294.6 121.86 284.12 121.87 305.1 121.88 326.07 140.04 315.57"/>
    <path class="cls-2" d="M380.4,281.23c0,8.79-7.12,15.91-15.91,15.91s-15.91-7.12-15.91-15.91,7.12-15.91,15.91-15.91,15.91,7.12,15.91,15.91Z"/>
    <path class="cls-2" d="M300,103.65c0,8.79-7.12,15.91-15.91,15.91s-15.91-7.12-15.91-15.91,7.13-15.91,15.91-15.91,15.91,7.12,15.91,15.91Z"/>
    <path class="cls-2" d="M310.15,573.3c0,8.79-7.12,15.91-15.91,15.91s-15.91-7.12-15.91-15.91,7.13-15.91,15.91-15.91,15.91,7.12,15.91,15.91Z"/>
    <path class="cls-2" d="M352.71,549.51c0-8.79,7.13-15.91,15.91-15.91s15.91,7.12,15.91,15.91"/>
    <path class="cls-2" d="M225.7,305.1c0-8.79,7.13-15.91,15.91-15.91s15.91,7.12,15.91,15.91"/>
    <path class="cls-2" d="M58.28,175.89c0-8.79,7.09-15.91,15.84-15.91s15.84,7.12,15.84,15.91"/>
    <path class="cls-2" d="M459.4,201.95c-8.79,0-15.91-7.09-15.91-15.84s7.12-15.84,15.91-15.84"/>
    <path class="cls-2" d="M76.22,573.22c-8.79,0-15.91-7.09-15.91-15.84s7.12-15.84,15.91-15.84"/>
    <path class="cls-2" d="M246.98,67.13c-8.79,0-15.91-7.09-15.91-15.84s7.12-15.84,15.91-15.84"/>
    <path class="cls-2" d="M84.18,405.85c0,8.79-7.12,15.91-15.91,15.91s-15.91-7.12-15.91-15.91,7.13-15.91,15.91-15.91,15.91,7.12,15.91,15.91Z"/>
    <path class="cls-2" d="M574.9,424.03c0,8.79-7.12,15.91-15.91,15.91s-15.91-7.12-15.91-15.91,7.12-15.91,15.91-15.91,15.91,7.12,15.91,15.91Z"/>
    <rect class="cls-2" x="530.88" y="170.28" width="31.65" height="31.65"/>
    <rect class="cls-2" x="172.99" y="186.11" width="31.65" height="31.65"/>
    <rect class="cls-2" x="171.4" y="388.2" width="31.65" height="31.65"/>
    <rect class="cls-2" x="530.88" y="541.56" width="31.65" height="31.65"/>
    <rect class="cls-2" x="399.57" y="35.46" width="31.65" height="31.65"/>
    <g>
      <path class="cls-2" d="M354.09,357.32c-6.91,0-5.72-12.25-14.54-12.25"/>
      <path class="cls-2" d="M383.16,357.32c-6.91,0-5.72-12.25-14.54-12.25"/>
      <path class="cls-2" d="M354.09,357.32c6.91,0,5.72-12.25,14.54-12.25"/>
      <path class="cls-2" d="M383.16,357.32c6.91,0,5.72-12.25,14.54-12.25"/>
    </g>
    <g>
      <path class="cls-2" d="M436.91,585.55c-6.91,0-5.72-12.26-14.54-12.26"/>
      <path class="cls-2" d="M465.98,585.55c-6.91,0-5.72-12.25-14.54-12.25"/>
      <path class="cls-2" d="M436.91,585.55c6.91,0,5.72-12.25,14.54-12.25"/>
      <path class="cls-2" d="M465.98,585.55c6.91,0,5.72-12.26,14.54-12.25"/>
    </g>
    <g>
      <path class="cls-2" d="M476.55,256.51c-6.91,0-5.72-12.25-14.54-12.25"/>
      <path class="cls-2" d="M505.62,256.51c-6.91,0-5.72-12.25-14.54-12.25"/>
      <path class="cls-2" d="M476.55,256.51c6.91,0,5.72-12.25,14.54-12.25"/>
      <path class="cls-2" d="M505.62,256.51c6.91,0,5.72-12.25,14.54-12.25"/>
    </g>
    <g>
      <path class="cls-2" d="M72.27,241.7c-6.91,0-5.72-12.25-14.54-12.25"/>
      <path class="cls-2" d="M101.34,241.7c-6.91,0-5.72-12.25-14.54-12.25"/>
      <path class="cls-2" d="M72.27,241.7c6.91,0,5.72-12.25,14.54-12.25"/>
      <path class="cls-2" d="M101.34,241.7c6.91,0,5.72-12.25,14.54-12.25"/>
    </g>
    <g>
      <path class="cls-2" d="M356.5,77.65c0,6.91-12.25,5.72-12.25,14.54"/>
      <path class="cls-2" d="M356.5,48.58c0,6.91-12.25,5.72-12.25,14.54"/>
      <path class="cls-2" d="M356.5,77.65c0-6.91-12.25-5.72-12.25-14.54"/>
      <path class="cls-2" d="M356.5,48.58c0-6.91-12.25-5.72-12.25-14.54"/>
    </g>
    <g>
      <path class="cls-2" d="M267.36,229.72c0,6.91-12.25,5.72-12.25,14.54"/>
      <path class="cls-2" d="M267.36,200.65c0,6.91-12.25,5.72-12.25,14.54"/>
      <path class="cls-2" d="M267.36,229.72c0-6.91-12.25-5.72-12.25-14.54"/>
      <path class="cls-2" d="M267.36,200.65c0-6.91-12.25-5.72-12.25-14.54"/>
    </g>
    <g>
      <path class="cls-2" d="M508.99,472.65c0,6.91-12.25,5.72-12.25,14.54"/>
      <path class="cls-2" d="M508.99,443.58c0,6.91-12.25,5.72-12.25,14.54"/>
      <path class="cls-2" d="M508.99,472.65c0-6.91-12.25-5.72-12.25-14.54"/>
      <path class="cls-2" d="M508.99,443.58c0-6.91-12.25-5.72-12.25-14.54"/>
    </g>
    <g>
      <path class="cls-2" d="M209.18,495.56c0,6.91-12.25,5.72-12.25,14.54"/>
      <path class="cls-2" d="M209.18,466.49c0,6.91-12.25,5.72-12.25,14.54"/>
      <path class="cls-2" d="M209.18,495.56c0-6.91-12.25-5.72-12.25-14.54"/>
      <path class="cls-2" d="M209.18,466.49c0-6.91-12.25-5.72-12.25-14.54"/>
    </g>
    <line class="cls-2" x1="388.92" y1="389.94" x2="424.79" y2="389.94"/>
    <line class="cls-2" x1="36.3" y1="286.29" x2="72.17" y2="286.29"/>
    <line class="cls-2" x1="391.61" y1="119.56" x2="427.48" y2="119.56"/>
    <line class="cls-2" x1="532.99" y1="38.61" x2="568.86" y2="38.61"/>
    <line class="cls-2" x1="179.3" y1="573.22" x2="215.17" y2="573.22"/>
    <line class="cls-2" x1="271.4" y1="503.93" x2="296.76" y2="478.56"/>
    <line class="cls-2" x1="61.44" y1="63.97" x2="86.81" y2="38.61"/>
    <line class="cls-2" x1="550.93" y1="323.98" x2="576.29" y2="298.62"/>
    <g class="cls-4">
      <polygon class="cls-1" points="367.77 181.29 357.27 163.12 346.8 181.29 336.32 199.47 357.29 199.45 378.27 199.44 367.77 181.29"/>
      <polygon class="cls-1" points="333.05 403.29 322.55 385.12 312.08 403.3 301.6 421.47 322.57 421.45 343.55 421.45 333.05 403.29"/>
      <polygon class="cls-1" points="453.4 471.46 442.89 453.3 432.42 471.47 421.95 489.65 442.92 489.63 463.9 489.62 453.4 471.46"/>
      <polygon class="cls-1" points="522.61 332.03 528.03 311.76 507.78 317.21 487.52 322.65 502.36 337.47 517.2 352.3 522.61 332.03"/>
      <polygon class="cls-1" points="177.69 96.74 183.1 76.47 162.85 81.92 142.59 87.36 157.43 102.18 172.27 117 177.69 96.74"/>
      <polygon class="cls-1" points="163.32 534.65 168.74 514.38 148.49 519.83 128.23 525.27 143.07 540.09 157.91 554.92 163.32 534.65"/>
      <polygon class="cls-1" points="543.86 119.38 562.03 108.88 543.85 98.41 525.68 87.93 525.7 108.9 525.71 129.88 543.86 119.38"/>
      <polygon class="cls-1" points="162.86 328.93 181.02 318.43 162.85 307.96 144.67 297.48 144.69 318.45 144.7 339.43 162.86 328.93"/>
      <path class="cls-1" d="M403.22,294.59c0,8.79-7.12,15.91-15.91,15.91s-15.91-7.12-15.91-15.91,7.12-15.91,15.91-15.91,15.91,7.12,15.91,15.91Z"/>
      <path class="cls-1" d="M322.81,117c0,8.79-7.12,15.91-15.91,15.91s-15.91-7.12-15.91-15.91,7.13-15.91,15.91-15.91,15.91,7.12,15.91,15.91Z"/>
      <path class="cls-1" d="M332.97,586.66c0,8.79-7.12,15.91-15.91,15.91s-15.91-7.12-15.91-15.91,7.13-15.91,15.91-15.91,15.91,7.12,15.91,15.91Z"/>
      <path class="cls-1" d="M375.53,562.87c0-8.79,7.13-15.91,15.91-15.91s15.91,7.12,15.91,15.91"/>
      <path class="cls-1" d="M248.52,318.46c0-8.79,7.13-15.91,15.91-15.91s15.91,7.12,15.91,15.91"/>
      <path class="cls-1" d="M81.1,189.25c0-8.79,7.09-15.91,15.84-15.91s15.84,7.12,15.84,15.91"/>
      <path class="cls-1" d="M482.22,215.31c-8.79,0-15.91-7.09-15.91-15.84s7.12-15.84,15.91-15.84"/>
      <path class="cls-1" d="M99.04,586.58c-8.79,0-15.91-7.09-15.91-15.84s7.12-15.84,15.91-15.84"/>
      <path class="cls-1" d="M269.8,80.49c-8.79,0-15.91-7.09-15.91-15.84s7.12-15.84,15.91-15.84"/>
      <path class="cls-1" d="M107,419.21c0,8.79-7.12,15.91-15.91,15.91s-15.91-7.12-15.91-15.91,7.13-15.91,15.91-15.91,15.91,7.12,15.91,15.91Z"/>
      <path class="cls-1" d="M597.72,437.38c0,8.79-7.12,15.91-15.91,15.91s-15.91-7.12-15.91-15.91,7.12-15.91,15.91-15.91,15.91,7.12,15.91,15.91Z"/>
      <rect class="cls-1" x="553.7" y="183.64" width="31.65" height="31.65"/>
      <rect class="cls-1" x="195.81" y="199.47" width="31.65" height="31.65"/>
      <rect class="cls-1" x="194.22" y="401.56" width="31.65" height="31.65"/>
      <rect class="cls-1" x="553.7" y="554.92" width="31.65" height="31.65"/>
      <rect class="cls-1" x="422.39" y="48.82" width="31.65" height="31.65"/>
      <g>
        <path class="cls-1" d="M376.91,370.68c-6.91,0-5.72-12.25-14.54-12.25"/>
        <path class="cls-1" d="M405.98,370.68c-6.91,0-5.72-12.25-14.54-12.25"/>
        <path class="cls-1" d="M376.91,370.68c6.91,0,5.72-12.25,14.54-12.25"/>
        <path class="cls-1" d="M405.98,370.68c6.91,0,5.72-12.25,14.54-12.25"/>
      </g>
      <g>
        <path class="cls-1" d="M459.73,598.91c-6.91,0-5.72-12.26-14.54-12.26"/>
        <path class="cls-1" d="M488.8,598.91c-6.91,0-5.72-12.25-14.54-12.25"/>
        <path class="cls-1" d="M459.73,598.91c6.91,0,5.72-12.25,14.54-12.25"/>
        <path class="cls-1" d="M488.8,598.91c6.91,0,5.72-12.26,14.54-12.25"/>
      </g>
      <g>
        <path class="cls-1" d="M499.37,269.87c-6.91,0-5.72-12.25-14.54-12.25"/>
        <path class="cls-1" d="M528.44,269.87c-6.91,0-5.72-12.25-14.54-12.25"/>
        <path class="cls-1" d="M499.37,269.87c6.91,0,5.72-12.25,14.54-12.25"/>
        <path class="cls-1" d="M528.44,269.87c6.91,0,5.72-12.25,14.54-12.25"/>
      </g>
      <g>
        <path class="cls-1" d="M95.09,255.06c-6.91,0-5.72-12.25-14.54-12.25"/>
        <path class="cls-1" d="M124.16,255.06c-6.91,0-5.72-12.25-14.54-12.25"/>
        <path class="cls-1" d="M95.09,255.06c6.91,0,5.72-12.25,14.54-12.25"/>
        <path class="cls-1" d="M124.16,255.06c6.91,0,5.72-12.25,14.54-12.25"/>
      </g>
      <g>
        <path class="cls-1" d="M379.31,91.01c0,6.91-12.25,5.72-12.25,14.54"/>
        <path class="cls-1" d="M379.31,61.94c0,6.91-12.25,5.72-12.25,14.54"/>
        <path class="cls-1" d="M379.31,91.01c0-6.91-12.25-5.72-12.25-14.54"/>
        <path class="cls-1" d="M379.31,61.94c0-6.91-12.25-5.72-12.25-14.54"/>
      </g>
      <g>
        <path class="cls-1" d="M290.17,243.08c0,6.91-12.25,5.72-12.25,14.54"/>
        <path class="cls-1" d="M290.17,214.01c0,6.91-12.25,5.72-12.25,14.54"/>
        <path class="cls-1" d="M290.17,243.08c0-6.91-12.25-5.72-12.25-14.54"/>
        <path class="cls-1" d="M290.17,214.01c0-6.91-12.25-5.72-12.25-14.54"/>
      </g>
      <g>
        <path class="cls-1" d="M531.81,486.01c0,6.91-12.25,5.72-12.25,14.54"/>
        <path class="cls-1" d="M531.81,456.94c0,6.91-12.25,5.72-12.25,14.54"/>
        <path class="cls-1" d="M531.81,486.01c0-6.91-12.25-5.72-12.25-14.54"/>
        <path class="cls-1" d="M531.81,456.94c0-6.91-12.25-5.72-12.25-14.54"/>
      </g>
      <g>
        <path class="cls-1" d="M232,508.92c0,6.91-12.25,5.72-12.25,14.54"/>
        <path class="cls-1" d="M232,479.85c0,6.91-12.25,5.72-12.25,14.54"/>
        <path class="cls-1" d="M232,508.92c0-6.91-12.25-5.72-12.25-14.54"/>
        <path class="cls-1" d="M232,479.85c0-6.91-12.25-5.72-12.25-14.54"/>
      </g>
      <line class="cls-1" x1="411.74" y1="403.3" x2="447.61" y2="403.3"/>
      <line class="cls-1" x1="59.11" y1="299.65" x2="94.98" y2="299.65"/>
      <line class="cls-1" x1="414.42" y1="132.92" x2="450.29" y2="132.92"/>
      <line class="cls-1" x1="555.81" y1="51.97" x2="591.68" y2="51.97"/>
      <line class="cls-1" x1="202.11" y1="586.58" x2="237.98" y2="586.58"/>
      <line class="cls-1" x1="294.22" y1="517.29" x2="319.58" y2="491.92"/>
      <line class="cls-1" x1="84.26" y1="77.33" x2="109.62" y2="51.97"/>
      <line class="cls-1" x1="573.74" y1="337.34" x2="599.11" y2="311.98"/>
    </g>
    <path class="cls-2" d="M362.88,474.86c-2.93,1.84-6.8,.96-8.64-1.97-1.85-2.93-.96-6.8,1.96-8.64,2.93-1.84,6.8-.96,8.64,1.97,1.84,2.93,.96,6.8-1.96,8.64Z"/>
    <path class="cls-2" d="M313.49,302.45c-2.93,1.84-6.8,.96-8.64-1.97-1.84-2.93-.96-6.8,1.96-8.64,2.93-1.84,6.8-.96,8.64,1.97,1.84,2.93,.96,6.8-1.96,8.64Z"/>
    <path class="cls-2" d="M87.6,355.47c-2.93,1.84-6.8,.96-8.64-1.97-1.84-2.93-.96-6.8,1.96-8.64,2.93-1.84,6.8-.96,8.64,1.97,1.84,2.93,.96,6.8-1.96,8.64Z"/>
    <path class="cls-2" d="M151.82,158.18c-2.93,1.84-6.8,.96-8.64-1.97-1.84-2.93-.96-6.8,1.96-8.64,2.93-1.84,6.8-.96,8.64,1.97,1.84,2.93,.96,6.8-1.96,8.64Z"/>
    <path class="cls-2" d="M496.6,155.07c-2.93,1.84-6.8,.96-8.64-1.97-1.84-2.93-.96-6.8,1.96-8.64,2.93-1.84,6.8-.96,8.64,1.97,1.84,2.93,.96,6.8-1.96,8.64Z"/>
    <path class="cls-2" d="M585.14,378.37c-2.93,1.84-6.8,.96-8.64-1.97-1.84-2.93-.96-6.8,1.96-8.64,2.93-1.84,6.8-.96,8.64,1.97,1.84,2.93,.96,6.8-1.96,8.64Z"/>
  </g>
</svg>