<?xml version="1.0" encoding="utf-8"?>
<!-- Generator: Adobe Illustrator 27.0.0, SVG Export Plug-In . SVG Version: 6.00 Build 0)  -->
<svg version="1.1" id="Layer_2_00000179644105800382136770000007013640441671506080_"
	 xmlns="http://www.w3.org/2000/svg" xmlns:xlink="http://www.w3.org/1999/xlink" x="0px" y="0px" viewBox="0 0 452.3 387.1"
	 style="enable-background:new 0 0 452.3 387.1;" xml:space="preserve">
<style type="text/css">
	.st0{fill:none;stroke:#E5D479;stroke-miterlimit:10;}
	.st1{fill:#F7EA96;}
	.st2{fill:none;stroke:#FFFFFF;stroke-miterlimit:10;}
	.st3{fill:#DBA838;}
	.st4{fill:#FFFFFF;}
	.st5{fill:#23BC32;}
	.st6{fill:#FFFD76;}
	.st7{fill:#97CF44;}
	.st8{fill:#3D9B46;}
	.st9{fill:#89D14E;}
	.st10{fill:#7DD72E;}
	.st11{fill:#E2CF6D;}
	.st12{fill:#5E4A43;}
	.st13{fill:#3F2821;}
	.st14{fill:#EAC278;}
	.st15{fill:#FFD883;}
	.st16{fill:#0C2F00;}
	.st17{fill:#745A3D;}
	.st18{fill:#E9BB48;}
	.st19{fill:#CC941B;}
	.st20{fill:#604830;}
</style>
<g id="OBJECT">
	<g>
		<path class="st0" d="M402,353.7c0,0,19.9-60.1,1.7-85s-32.6-36-23.5-56.1c9.1-20.1,5-53.1-19-62.9c-24.1-9.9-12.9-47.1-39.6-68.5
			S273.3,69.4,260.5,43c-11.2-23.1-34.5-45-57.8-22.5c-5.1,4.9-8.5,11.3-10.3,18.3C190.5,46,184,58.6,162,71.2
			c-33.8,19.3-20.4,31.8-34,54.1c-13.6,22.3-57.1,11.1-73.5,53.9s18.9,57.2,16.1,82.8s-19.8,39.6-9.5,91"/>
		<path class="st0" d="M411.6,354.3c0,0,23.3-66.4,3.6-91.7c-19.6-25.2-35.2-36.4-25.3-56.7s5.5-53.6-20.5-63.6
			c-26-10-13.9-47.6-42.7-69.2C298,51.5,278.8,53.6,265,27c-12.1-23.4-41.4-37.7-66.6-15.1c-5.5,5-9.2,11.5-11.1,18.5
			c-2,7.3-9,20-32.8,32.7c-36.5,19.5-22,32.1-36.7,54.7s-55.2,14.8-73.3,52.6c-20.2,42.1,11.2,59.1,8.1,84.9s-10.8,46.4,0.3,98.4"/>
		<path class="st1" d="M205.9,33.9c-5,4.9-8.3,11.3-10.1,18.3c-1.8,7.3-8.2,19.8-29.6,32.4c-33,19.3-19.9,31.8-33.2,54.1
			c-13.3,22.3-51.1,5.2-67,48s20.8,62.2,18,87.8S59.2,301.6,69.3,353h333c0,0,17.8-46,0-70.9c-17.8-25-31.8-36-22.9-56.1
			c8.9-20.1,4.9-53.1-18.6-62.9s-12.6-47.1-38.6-68.5c-26-21.4-47.3-11.7-59.8-38.1C251.4,33.3,228.6,11.5,205.9,33.9L205.9,33.9z"
			/>
		<path class="st2" d="M207.2,45.9c-4.8,4.7-8,10.8-9.6,17.5c-1.7,6.9-7.8,19-28.4,31c-31.6,18.5-19.1,30.4-31.8,51.8
			c-12.7,21.4-48.8,5-64.1,45.9c-15.3,41,19.9,59.5,17.3,83.9s-23.7,25.9-14,75.1H395c0,0,17-44,0-67.8
			c-17-23.9-30.5-34.4-21.9-53.7s4.7-50.8-17.8-60.2s-12-45.1-37-65.5c-24.9-20.4-45.2-11.2-57.1-36.4
			C250.7,45.4,229,24.5,207.2,45.9L207.2,45.9z"/>
		<path class="st3" d="M330.1,167.3c-2-1.1-4.5-0.3-5-0.9s2.1-2.6,2.9-4.7c0.8-2.1-0.1-7.4-3.4-4.9s-3.5,6.8-3.5,6.8s0,0.2-0.1,0.6
			c-1.1-2.7-0.5-6.3-0.5-6.4c0-0.2-0.1-0.4-0.3-0.4c-0.2,0-0.4,0.1-0.4,0.3c0,0.2-0.5,3.1,0.2,5.8c-1.8-2-4.3-3.2-4.5-3.3
			c-0.2-0.1-0.4,0-0.5,0.2s0,0.4,0.2,0.5c0,0,3.7,1.8,5.1,4.4c-0.4-0.3-0.8-0.5-0.8-0.5s-3.4-2.7-7.5-1.8c-4.1,0.9-0.6,5.1,1.5,5.8
			s5.2,0.1,5.5,0.8c0.2,0.7-2.1,2.1-2.5,4.4c-0.4,2.2,2.2,4.6,3.7,4.6c1.3,0.1,3.4-4.4,3.3-7.7c2.6,2,6.9,3.3,7.7,2.2
			C332.1,172,332.1,168.5,330.1,167.3L330.1,167.3z"/>
		<path class="st3" d="M112.7,201.9c-0.4-1.8-2.3-3-2.1-3.6c0.2-0.6,2.8-0.1,4.5-0.8s4.5-4.1,1.2-4.8c-3.4-0.7-6.1,1.6-6.1,1.6
			s-0.2,0.1-0.4,0.3c1-2.1,3.6-3.8,3.6-3.8c0.1-0.1,0.2-0.3,0.1-0.4c-0.1-0.1-0.3-0.2-0.4-0.1c-0.1,0.1-2.2,1.4-3.4,3.3
			c0.3-2.2-0.3-4.4-0.4-4.6c-0.1-0.2-0.2-0.2-0.4-0.2c-0.2,0.1-0.2,0.2-0.2,0.4c0,0,0.9,3.2,0.1,5.5c0-0.4-0.1-0.7-0.1-0.7
			s-0.2-3.5-2.9-5.6c-2.8-2-3.5,2.4-2.8,4.1s2.8,3.3,2.4,3.8c-0.3,0.5-2.5-0.1-4.1,0.8s-1.6,3.8-0.9,4.8c0.7,0.9,4.5-0.3,6.6-2.2
			c0.2,2.7,1.8,6,2.8,5.9C111,205.7,113.1,203.7,112.7,201.9L112.7,201.9z"/>
		<path class="st3" d="M225.2,73.4c-0.4-1.8-2.3-3-2.1-3.6c0.2-0.6,2.8-0.1,4.5-0.8s4.5-4.1,1.1-4.8c-3.4-0.7-6.1,1.6-6.1,1.6
			s-0.2,0.1-0.4,0.3c1-2.2,3.6-3.8,3.6-3.8c0.1-0.1,0.2-0.3,0.1-0.4c-0.1-0.2-0.3-0.2-0.4-0.1c-0.1,0.1-2.2,1.4-3.4,3.3
			c0.3-2.2-0.4-4.4-0.4-4.5c-0.1-0.2-0.2-0.2-0.4-0.2c-0.2,0-0.2,0.2-0.2,0.4c0,0,0.9,3.2,0.1,5.5c0-0.4-0.1-0.7-0.1-0.7
			s-0.2-3.5-2.9-5.6s-3.5,2.4-2.8,4.1c0.7,1.7,2.8,3.3,2.4,3.8s-2.5-0.1-4.1,0.8c-1.6,1-1.6,3.8-0.9,4.8c0.7,0.9,4.5-0.3,6.6-2.2
			c0.1,2.7,1.8,6,2.8,5.9C223.4,77.1,225.5,75.2,225.2,73.4L225.2,73.4z"/>
		<g>
			<path class="st4" d="M174.1,123.1c-0.4,0.5-1,0.6-1.5,0.2c-0.5-0.3-0.6-1-0.2-1.5c0.4-0.5,1-0.6,1.5-0.2
				C174.4,121.9,174.5,122.6,174.1,123.1z"/>
			<path class="st4" d="M176.9,118.5c-0.4,0.5-1,0.6-1.5,0.2c-0.5-0.3-0.6-1-0.2-1.5s1-0.6,1.5-0.2S177.3,118,176.9,118.5z"/>
			<path class="st4" d="M180.1,125.7c-0.4,0.5-1,0.6-1.5,0.2c-0.5-0.3-0.6-1-0.2-1.5c0.4-0.5,1-0.6,1.5-0.2
				C180.4,124.5,180.5,125.2,180.1,125.7z"/>
		</g>
		<g>
			<path class="st4" d="M318.9,135.7c-0.4,0.5-1,0.6-1.5,0.2s-0.6-1-0.2-1.5s1-0.6,1.5-0.2C319.1,134.5,319.2,135.2,318.9,135.7z"/>
			<path class="st4" d="M321.6,131.1c-0.4,0.5-1,0.6-1.5,0.2c-0.5-0.4-0.6-1-0.2-1.5c0.4-0.5,1-0.6,1.5-0.2
				C321.9,129.9,322,130.6,321.6,131.1z"/>
			<path class="st4" d="M324.9,138.3c-0.4,0.5-1,0.6-1.5,0.2c-0.5-0.4-0.6-1-0.2-1.5s1-0.6,1.5-0.2
				C325.1,137.2,325.2,137.8,324.9,138.3z"/>
		</g>
		<g>
			<path class="st4" d="M267.8,92c-0.4,0.5-1,0.6-1.5,0.2c-0.5-0.3-0.6-1-0.2-1.5c0.4-0.5,1-0.6,1.5-0.2
				C268.1,90.9,268.2,91.6,267.8,92z"/>
			<path class="st4" d="M270.6,87.4c-0.4,0.5-1,0.6-1.5,0.2c-0.5-0.3-0.6-1-0.2-1.5s1-0.6,1.5-0.2C270.8,86.3,270.9,87,270.6,87.4z"
				/>
			<path class="st4" d="M273.8,94.7c-0.4,0.5-1,0.6-1.5,0.2c-0.5-0.3-0.6-1-0.2-1.5s1-0.6,1.5-0.2C274.1,93.5,274.2,94.2,273.8,94.7
				z"/>
		</g>
		<g>
			<path class="st4" d="M281.7,154.7c-0.5-0.4-0.5-1.1-0.1-1.5c0.4-0.5,1.1-0.5,1.5-0.1c0.5,0.4,0.5,1.1,0.1,1.5
				C282.9,155,282.2,155,281.7,154.7z"/>
			<path class="st4" d="M286.1,157.7c-0.5-0.4-0.5-1.1-0.1-1.5c0.4-0.5,1.1-0.5,1.5-0.1s0.5,1.1,0.1,1.5
				C287.3,158,286.6,158.1,286.1,157.7z"/>
			<path class="st4" d="M278.8,160.5c-0.5-0.4-0.5-1.1-0.1-1.5c0.4-0.5,1.1-0.5,1.5-0.1c0.5,0.4,0.5,1.1,0.1,1.5
				C279.9,160.8,279.2,160.9,278.8,160.5z"/>
		</g>
		<path class="st4" d="M126.9,177.3c0,0.8-0.6,1.4-1.4,1.4s-1.4-0.6-1.4-1.4s0.6-1.4,1.4-1.4S126.9,176.5,126.9,177.3z"/>
		<path class="st4" d="M310.1,106.7c0,0.9-0.8,1.7-1.7,1.7s-1.7-0.8-1.7-1.7s0.8-1.7,1.7-1.7S310.1,105.8,310.1,106.7z"/>
		<path class="st4" d="M192.8,159.7c0,0.9-0.8,1.7-1.7,1.7s-1.7-0.8-1.7-1.7s0.8-1.7,1.7-1.7S192.8,158.8,192.8,159.7z"/>
		<path class="st4" d="M225.2,48.8c0,0.6-0.5,1-1,1s-1-0.5-1-1s0.5-1,1-1S225.2,48.2,225.2,48.8z"/>
		<path class="st4" d="M304.5,201c0,0.9-0.7,1.5-1.5,1.5s-1.5-0.7-1.5-1.5s0.7-1.5,1.5-1.5S304.5,200.1,304.5,201z"/>
		<path class="st4" d="M203.5,83.8c0,0.8-0.7,1.5-1.5,1.5s-1.5-0.7-1.5-1.5s0.7-1.5,1.5-1.5S203.5,82.9,203.5,83.8z"/>
	</g>
	<g>
		<path class="st1" d="M33.7,341.8h411.1c3,0,3.9,4.2,1.1,5.3c-27.5,11.3-100.4,36.9-202.6,39.8c-95,2.7-174.4-22-211.2-36
			C27.1,349.1,28.5,341.8,33.7,341.8L33.7,341.8z"/>
		<g>
			<path class="st5" d="M170.7,255.7c-0.9-16.2-17.9-19.5-19.6-23.5s-4.4-12.3-16.7-16.2c-12.2-3.9-19.9,3.3-26.7-1.1
				c-6.9-4.4-13-8.1-21.2-2.5s-14,3.5-25.8,2.2c-11.8-1.3-21.2,10.1-21.2,10.1c-4.6,4.2-0.2,9.6,10.7,12.2
				c15.4,3.7,11,13.7,19.2,17.8s17.9,0,24.1,4.9c6.2,4.9,5.7,13.8,13.4,15.9c7.7,2.1,16.7-3,21,0c4.4,3,6.8,11.9,12,15
				s20,3.8,20,3.8l3.6-0.9C163.5,293.4,171.6,272,170.7,255.7L170.7,255.7z"/>
			<path class="st6" d="M161.1,288.2c0,0-3.9-33.1-26.6-48.2c-22.8-15.1-60.2-15.5-71.5-16.1l-11.3-0.6c0,0,45.8-2.9,68.4,6.3
				C151.2,242.3,160.1,263,161.1,288.2L161.1,288.2z"/>
			<path class="st7" d="M144.4,253.3c0,0-19.1-17-21.9-31.2s5.6-19.5-0.1-26.6c-5.7-7.2-3.1-20.1,3-23.3s8.6-10.4,9.2-20.3
				s8.1-13.5,10.4-10.8c6.4,7.5,3.2,15.2,13,20c9.8,4.8,13.3,14.7,10.8,22.8c-2.5,8.1,8.4,10.7,15.5,23.1s2,22.8-1.1,30.6
				c-3,7.8,5.4,17.1,2.3,26.1s-24.1,23.7-24.1,23.7S151.2,283.7,144.4,253.3L144.4,253.3z"/>
			<path class="st6" d="M144.2,154.9c0,0,6.3,24.3,13.9,55.6s8.9,69.9,8.9,69.9s4.4-28-1.3-54.3S144.7,158.9,144.2,154.9
				L144.2,154.9z"/>
			<path class="st5" d="M146.9,266c-2.6-13.3,10.5-19.5,11.1-23.1s1.1-10.9,10.2-16.6s16.8-1.4,21.4-6.4c4.6-5,8.9-9.2,16.6-6.4
				c7.8,2.8,12,0,21.3-3.5c9.3-3.5,19.2,3.8,19.2,3.8c4.6,2.5,2.1,7.7-6.2,12.1c-11.7,6.2-6.1,13.4-11.9,18.3
				c-5.8,5-14.5,3.7-18.5,8.9c-4,5.2-1.8,12.3-7.6,15.6c-5.8,3.3-14.1,1-17,4.3s-3,11-6.6,14.6c-3.6,3.6-15.4,7.2-15.4,7.2l-3.1,0
				C160.5,295,149.5,279.3,146.9,266L146.9,266z"/>
			<path class="st6" d="M161.4,290.4c0,0-3.7-27.6,11.7-44.5s45.6-24.9,54.6-27.7l9.1-2.8c0,0-37.6,7-54.1,19.2
				C160,251.1,157.1,269.7,161.4,290.4L161.4,290.4z"/>
			<path class="st8" d="M152.4,290.3c0,0-25.1-6.9-38.3-0.8c-13.2,6-15.6,14.3-15.6,14.3s5.7,2,16.4,0.5c10.7-1.5,12.3-7.9,19.8-4.8
				s9.9,5.9,16.2,4.1s9.5-8.6,9.5-8.6L152.4,290.3L152.4,290.3z"/>
			<path class="st8" d="M164.8,291.2c0,0,6.8-7.8,16.6-7.3c9.8,0.5,11.5,3.9,16.3,4.1c4.8,0.2,7.4-1.3,14,0.9
				c6.5,2.2,10.3,5.2,10.3,5.2s-6.7,9.6-17,7.1s-18.2-4.1-21.6-0.6c-3.4,3.5-24.7-2.9-24.7-2.9L164.8,291.2L164.8,291.2z"/>
		</g>
		<g>
			<path class="st9" d="M310.1,260.3c0,0,14.1,9.1,43.1,14.1c29,5.1,41.3-3.2,42.9-7.1c1.6-3.9-3.2-6-22.1-9.5
				c-18.9-3.5-24-7.7-14.6-8.8c9.3-1.1,22.4,7.2,33.6,7.2s18.9-5.9,19.2-10s-33.6-5.1-37.8-11c-4.3-5.9,21.9,0.3,33.2,1.9
				c11.3,1.6,15.8-7.2,15-10.1s-28.2-3.9-30.9-7.9s11.5-2.6,23.7,0s18.4-6.4,16.8-8.6s-24.2-3.7-26.6-7.7s12.2-2.9,19.7-1.3
				c7.5,1.6,15.5-5.6,12.8-8c-2.7-2.4-19.5-3.2-20-6.7s22.4-1.6,20.5-6.7c-1.9-5.1-8.2-9.8-18.1-10s-18.9,10.2-24.2,7
				s13-10.9,8.3-13.9s-15.5-1.3-19.2,3.7c-3.7,5.1-4,13.6-8,13.3c-4-0.3,2.9-12.2-0.5-14.9c-3.5-2.7-12.5,2.9-14.4,8.3
				c-1.9,5.3,0.3,16-3.5,16.5c-3.7,0.5,0.9-17.1-2.4-18.6c-3.2-1.6-13.6,8.8-13.9,15.2s3.2,16.5-2.4,18.1
				c-5.6,1.6-4.5-18.4-8.8-20.2c-4.3-1.9-12.8,10.4-11.5,20.4c1.3,10,4.3,18.2,0.3,18.2c-4,0-6.9-12.8-10.1-14.9
				c-3.2-2.1-6.1,3.2-6.9,16.8C302.4,238.8,308.8,257,310.1,260.3L310.1,260.3z"/>
			<path class="st6" d="M305.6,282.2c0,0,15-38.4,32.4-59.6s51-34.1,67.2-35c0,0-38.3,7.1-62.9,37.6s-33.9,72.1-33.9,72.1l-6.7-1.3
				L305.6,282.2L305.6,282.2z"/>
		</g>
		<g>
			<path class="st8" d="M34.5,338.6c0,0,2.1-8,12.6-11.6c10.5-3.7,12,6.2,18.6,5.8c6.6-0.4,9.7,12.4,9.7,12.4H32.1L34.5,338.6
				L34.5,338.6z"/>
			<path class="st5" d="M59.8,344.7c-0.6-3-1.5-6.4-2.7-10.1c1.9-3.7,7.3-15.4,7.1-29.6c-0.2-17.2-12.1-35.2-12.1-35.2
				s-3.1,29.4,2.1,56.5c-3.6-9.7-8.2-20.2-12.5-29.4c1.8-3.8,5.1-12,5-21.7c0-13.4-9.2-27.5-9.2-27.5s-2.5,21.9,1,42.5
				c-3.1-6.6-5.9-12-7.5-15.2c-0.3-4.5-1.4-12.5-5.5-20.3c-6.3-11.9-21-20.1-21-20.1s9.3,23.8,23.8,41c1.3,2.6,3.5,7,6.2,12.4
				c-2-3-4.6-6.1-7.8-9C16.7,270.3,0,267.8,0,267.8s19,21,39.9,31.6c2.2,4.7,4.4,9.7,6.6,14.8c-2.4-3.3-5.4-6.7-9-9.8
				c-13-11.3-34.4-14.3-34.4-14.3s23.2,25.4,49.3,39.1c2.2,6,3.9,11.5,4.8,16.1L59.8,344.7L59.8,344.7z"/>
		</g>
		<g>
			<path class="st8" d="M402.1,336.6h13.2c0,0,6-11,20.4-18.5s16-16.6,16.6-20.9c0.6-4.2-5.6-2-15.1,3.6s-11.9,19-16,18.8
				s-1.6-15.6,7.2-20.6s15.7-17.2,17.9-25.1s-15.7-2.2-24.1,7.2s-7.2,32.4-13.5,35.3c-6.3,2.9,4.7-16.4-8-24.2
				c-5.1-3.2-6.4,5.9-4.9,17.3S405.2,326.2,402.1,336.6L402.1,336.6z"/>
			<path class="st10" d="M379.9,343.4c0,0,23.1,2.5,41,2.5s24.7-1.6,24.7-1.6s-3.9-7.3-15.3-10.1c-11.5-2.8-12.6,4.1-17.6,0
				c-5-4.1-14.2-7.1-22.2-4.8S379.9,343.4,379.9,343.4z"/>
		</g>
		<ellipse class="st11" cx="232.6" cy="353.1" rx="138.3" ry="11.3"/>
	</g>
	<g>
		<path class="st12" d="M361.3,290.6l-10.5,11.1c0,0,0,0,0,0l-2,2.1l0,0l-0.1,0.1c0,0,0,0,0,0c-22.7-14-44.6-34.9-50.1-40.3
			c-2.8-2.5-5.5-5.6-7.5-9.2c-4.8-8.6-11.4-24.6-15.9-36.3l-0.6,2.6l-8.2,34.8c3.5,5.4,8.3,13.6,12.4,23.8c2.1,5.2,4,10.9,5.5,16.9
			l-47.2,27.8v0.7l-0.6-0.3l-0.6,0.4v-0.7l-48.2-25.9c1.6-7.6,3.8-14.7,6.3-21c0-0.1,0.1-0.2,0.1-0.3c3.4-8.4,7.1-15.3,9.9-20.1
			l-9.7-35l-1.3-4.7l-0.7-2.5c-4.6,11.4-13.1,31.9-19,41.9c-2.1,3.6-4.8,6.6-7.7,9.1c-5.6,5.3-27.9,25.8-50.9,39.4l-2.1-2.3
			l-10.3-11.3l52.3-49.2l17.7-50.5c10.2-21.8,17.8-22.1,17.8-22.1l0,0c1.4-1.2,3-2.2,4.8-2.9c0.6-0.2,1.2-0.5,1.8-0.7h0
			c3.4-1.4,7.3-3.2,11.2-5.5c4.6-2.7,9.1-6,13-10.2c0.6-3.9,0.8-9.4,0.9-13c0-2.1,0-3.6,0-3.6l11.1,1.1l11.1-1.6
			c0,0,0.1,2.9,0.4,6.5c0.2,3.3,0.6,7.1,1.2,10.1c1.8,1.8,3.8,3.4,5.8,4.9c7,5.1,14.7,8.4,20.9,10.5c1.6,0.6,3,1.3,4.3,2.2
			c1.6,0.4,8.5,3.2,17,22.4l16.7,50.9L361.3,290.6L361.3,290.6z"/>
		<path class="st13" d="M251,154.4c-1.8,2-7.3,6.3-22.8,9.9c-21,4.8-31.8,1.4-31.8,1.4h0c3.4-1.4,7.3-3.2,11.2-5.5
			c4.6-2.7,9.1-6,13-10.2c0.6-3.9,0.8-9.4,0.9-13l22.6,2.5c0.2,3.3,0.6,7.1,1.2,10.1C247.1,151.3,249,152.9,251,154.4L251,154.4z"/>
		<path class="st13" d="M262.8,229.4c-7.4,3.3-20.2-3.1-31.2,0.5c-10.9,3.5-16.4,13.6-18.5,26.6c-2.1,12.9,3.3,31.7,3.3,31.7
			s-9.8,2.7-22.6-11.6c3.4-8.4,7.1-15.3,9.9-20.1l-11-39.7l-0.7-2.5c0,0-2.6-13.6,4-23.9c0,0-2.1,11.1,1.8,21.2
			c3.8,10.1,12.9,10.1,22.4,9.9c9.5-0.2,9.3-3.5,20-1.2c17.8,3.8,24.8,2.1,29-3.7C271.9,212.7,270.2,226.2,262.8,229.4L262.8,229.4z
			"/>
		<path class="st14" d="M212.1,121.4c0,0-2.5-5.2-5.9-5c-3.3,0.2-4.4,7.3,0.2,12.9c4.7,5.5,9,3.2,9,3.2L212.1,121.4L212.1,121.4z"/>
		<path class="st14" d="M253.9,120.6c0,0,2.3-5.3,5.7-5.2c3.3,0.1,4.7,7.1,0.2,12.9c-4.5,5.7-8.8,3.5-8.8,3.5L253.9,120.6
			L253.9,120.6z"/>
		<path class="st15" d="M255.4,109.9c0.4,20.6-11.9,39.1-21.7,39.3c-11.9,0.2-23.4-19.2-23.8-38.4c-0.3-14.2,8.3-26,22.5-26.2
			C246.7,84.3,255.1,95.7,255.4,109.9L255.4,109.9z"/>
		<path class="st16" d="M215,111.8c0,0,3.3-0.9,7-1.2c4.5-0.3,6.2,0.1,6.2,0.1s-0.9-2.5-4.7-2.5S215,111.8,215,111.8L215,111.8z"/>
		<path class="st14" d="M228,117.4c0,0-2.7-3.6-6.1-3.6s-6.5,3.9-6.5,3.9s0.9,1,5.8,1.2C226.2,119.1,228,117.4,228,117.4L228,117.4z
			"/>
		<path class="st16" d="M221.8,118.6c-3.2,0-5.9-0.8-6.3-0.9l-0.1,0c0,0,0,0,0,0h0c0,0,0,0,0,0c-0.6,0.4-1.7,0.5-1.7,0.5
			c1.2,0.4,2.2,0.2,2.6,0.2c0.9,0.6,2.6,1.5,5.6,1.4c4.3-0.1,6.2-2.3,6.2-2.3S225.3,118.6,221.8,118.6L221.8,118.6z"/>
		<path class="st16" d="M250.1,111.1c0,0-3.4-0.8-7-0.9c-4.5-0.2-6.2,0.4-6.2,0.4s0.8-2.6,4.6-2.7
			C245.3,107.8,250.1,111.1,250.1,111.1z"/>
		<path class="st14" d="M237.4,117.2c0,0,2.5-3.7,6-3.9c3.4-0.2,6.6,3.6,6.6,3.6s-0.9,1.1-5.8,1.5
			C239.2,118.8,237.4,117.2,237.4,117.2L237.4,117.2z"/>
		<path class="st16" d="M251.8,117.4c0,0-1.2-0.1-1.8-0.4c0,0,0,0,0,0c0,0,0,0,0,0c0,0,0,0,0,0l-0.1,0c-0.4,0.2-3.1,1.1-6.3,1.2
			c-3.6,0.1-6.2-1-6.2-1s2,2.2,6.3,2.1c3-0.1,4.6-1,5.5-1.7C249.6,117.7,250.6,117.8,251.8,117.4L251.8,117.4z"/>
		<path class="st14" d="M229.7,129.8c0,0,1.8,1.1,3.3,1.2s3.3-1.3,3.3-1.3s-1.4-0.1-3.1-0.2C231.6,129.4,229.8,129.8,229.7,129.8
			L229.7,129.8z"/>
		<path class="st17" d="M233.9,136.2c3.7-0.2,6-1.4,6-1.4s-3.9-0.4-5-0.2c-0.6,0.1-1.1,0.7-1.3,1.2c-0.3-0.4-0.7-1-1.4-1.1
			c-1-0.2-5,0.4-5,0.4s2.4,1.1,6.1,1.1v0c0.1,0,0.1,0,0.2,0C233.7,136.2,233.8,136.2,233.9,136.2
			C233.9,136.2,233.9,136.2,233.9,136.2L233.9,136.2z"/>
		<path class="st14" d="M228.4,136.6c0,0,0.8,1.1,3.7,1.8s5-0.5,6.7-1.6c0,0-1.6,3-4.8,3.4C230.8,140.6,228.6,137,228.4,136.6z"/>
		<path class="st17" d="M241.6,96.8c0,0-4.9-2.6-11.6-2.3c-6.7,0.3-11.9,5.6-13.8,9.2c-1.9,3.7-3.9,4.7-3.9,4.7s0.6,8.9-1.1,12.8
			c0,0-2.3-3.9-5-4.8c0,0-2.3-8.2-0.9-16.8c1.4-8.7,10.6-18,23-19.3C240.7,79,247,85,247,85s8.2,4.6,10.7,12.5
			c2.5,7.9,0.4,18.1,0.4,18.1s-2.1,1.1-3.5,4.8c0,0-4-6-2.9-12.7C251.6,107.7,250,97.1,241.6,96.8L241.6,96.8z"/>
		<path class="st17" d="M248.9,89.4c-2.5,0.8-18.5-7.9-18.5-7.9s-0.1-1.4,0.4-3.2c0.6-2.5,2.3-5.8,6.5-7.3c0.7-0.3,1.5-0.4,2.2-0.6
			c6.4-1.1,11.8,3.3,13.3,7.8C254.5,83.2,251.4,88.7,248.9,89.4L248.9,89.4z"/>
		<path class="st14" d="M228.2,110.7c0,0,1.6,2.9,2.4,7.3c0.9,4.4,0.1,7.6,0.1,7.6s-0.9-12.5-7.2-15.2
			C223.6,110.5,227,110.4,228.2,110.7L228.2,110.7z"/>
		<path class="st17" d="M241.6,96.8c0,0-7.9-2.7-14.6,0.3s-6.6,7.2-11.2,7.6l-0.6-1.1c0,0,1.2,0.2,4.1-2S228.1,91.2,241.6,96.8
			L241.6,96.8z"/>
		<path class="st15" d="M209.4,333c0,0-6.5,0.8-8.7,1.3c0,0-9-1.3-12.8-1.1c-3.8,0.2-5.9,4.7-8,9.6c-2.1,4.9-10.5,10.1-13.4,13.2
			c-2.9,3-3,7.5-2.9,8.5c0.1,1-1.9,3.6-0.8,5.9c1,2.2,2.1,1.5,3,1.2c0.9-0.2,1.6-1.8,1.6-1.8s2.4,0.1,3.4-0.3c1-0.5,0.1-0.7,2.4-0.8
			c2.3-0.1,3.5-0.4,4.9-1s10.9-10.5,16.1-13.1c5.1-2.6,13.1-2,13.1-2L209.4,333L209.4,333z"/>
		<path class="st18" d="M355.5,339.7c-15.4,8.6-40.8,12-70.3,13.8c-3.6,0.2-7.2,0.4-10.9,0.6l0.5,12.8c0,0-2.2,0-6.2-0.1
			c-12.1-0.1-40.5-0.5-70-1.1c-47.8-0.9-85.8-12.8-96.8-23.4c-5.3-5.1-8.4-13.2-7.3-20.8c0.9-6,4.5-11.7,11.7-15.3
			c1.7-0.9,4.8-1.9,8.9-3.1c12.8-3.7,36.1-8.1,61.7-8.4c0.4,0,0.8,0,1.2-0.1c3.4-5.1,15.9-17.9,15.9-17.9s8.8,7.4,20.8,11.8
			c6.4,2.3,13.6,3.8,20.9,2.9c21.2-2.6,42.5-14.4,42.5-14.4c4.3,4.3,8.4,14.4,8.4,14.4c21.2,0.2,56.4,6.6,64,10.4
			c0,0,0.1,0.1,0.1,0.1c5.1,1.4,9.4,4.4,12.4,8.2C369.8,318.8,369.3,332,355.5,339.7L355.5,339.7z"/>
		<path class="st15" d="M102.1,291.1c0,0-5.3-0.8-7.5-0.8c-2.1,0-6.5,1.4-8.9,1.8c-2.4,0.4-3.7,0.5-3.6,0.9s0.9,1.3,3.6,1.6
			c2.7,0.4,5-0.3,6.4-0.4c1.4,0,1.8,0.8,1.8,0.8s-1.5,3.9-6.2,4.7c-4.7,0.8-6.6,0.1-6.9-0.5s1.7-5.2,1.2-6.9
			c-0.5-1.7-1.3-1.6-2.3,1.1c-1,2.7-2.7,5.3-2.7,7.1s3.1,3.3,3.1,3.3s-5.8-0.7-7.6,0.9c-1.7,1.6,1.8,1.7,4.5,1.9s5.3,1.1,7,0.9
			c0,0-7.4-0.1-8.9,1.1s1.5,2,4.3,1.9c2.8,0,6.6,0.5,7.2,0.5c0,0-6.6,0.8-6.4,2.5c0.2,1.6,1.4,0.5,5,0.9c3.6,0.4,6.6,0.3,10-0.7
			c3.4-1,17-11.4,17-11.4L102.1,291.1L102.1,291.1z"/>
		<path class="st19" d="M330.4,307.3c-28.2,4-107.3,24.2-107.3,24.2s-41.6-19.1-69.6-23.5c-26.5-4.2-42-2.1-38.4-5
			c12.8-3.7,36.1-8.1,61.7-8.4c0.4,0,0.8,0,1.2-0.1c3.4-5.1,15.9-17.9,15.9-17.9s8.8,7.4,20.8,11.8c1,4.6,17.6,27.6,29.6,23.8
			c12-3.8,27.8-8.9,35.3-6.4s22.8,1.2,33.4-1.2C323.4,302.3,330.3,307.3,330.4,307.3L330.4,307.3z"/>
		<path class="st13" d="M350.8,301.7C350.8,301.7,350.8,301.7,350.8,301.7c-0.1,0.2-0.6,1.3-2,2.1c0,0,0,0,0,0c0,0-0.1,0.1-0.2,0.1
			c-22.7-14-44.6-34.9-50.1-40.3c-2.8-2.5-5.5-5.6-7.5-9.2c-4.8-8.6-11.4-24.6-15.9-36.3l2.6-21.8c0,0,9.8,42.2,20.2,55.9
			C308.2,265.7,350.8,301.7,350.8,301.7L350.8,301.7z"/>
		<path class="st13" d="M194.1,221.6l-1.3-4.7l-0.7-2.5c-4.6,11.4-13.1,31.9-19,41.9c-2.1,3.6-4.8,6.6-7.7,9.1
			c-5.6,5.3-27.9,25.8-50.9,39.4l-2.1-2.3c0,0,45.2-38.6,58.5-53.8c13.3-15.2,21.4-48.3,21.4-48.3L194.1,221.6L194.1,221.6z"/>
		<path class="st19" d="M355.5,339.7c-15.4,8.6-40.8,12-70.3,13.8c-12.3-2-21.1-6.8-21.1-6.8v-1.5l-41-13.6c0.4,0.1,7.1-1.8,7.1-1.8
			c18.7,4.2,64.7,16.7,88.6,11.2c30.8-7.1,32-20,37.6-26.5c2.2-2.5,4.5-3.8,6.5-4.4C369.8,318.8,369.3,332,355.5,339.7L355.5,339.7z
			"/>
		<path class="st15" d="M264.1,346.6c0,0,6.5,1,8.7,1.4c0,0,9.1-1.1,12.9-0.9c3.8,0.2,5.8,4.8,7.8,9.7c2,5,10.3,10.3,13.1,13.5
			c2.9,3.1,2.9,7.6,2.8,8.5s1.8,3.7,0.7,5.9s-2.1,1.4-3.1,1.2c-0.9-0.3-1.6-1.9-1.6-1.9s-2.4,0.1-3.4-0.4s-0.1-0.7-2.4-0.9
			s-3.5-0.5-4.9-1.1s-10.7-10.7-15.8-13.4s-13.1-2.3-13.1-2.3L264.1,346.6L264.1,346.6z"/>
		<path class="st15" d="M361.3,290.6c0,0,5.4-0.7,7.5-0.6s6.4,1.5,8.9,2s3.6,0.6,3.6,0.9c-0.1,0.4-0.9,1.2-3.6,1.6
			c-2.7,0.3-5-0.4-6.4-0.5c-1.4-0.1-1.8,0.8-1.8,0.8s1.4,3.9,6.1,4.8c4.7,0.9,6.5,0.2,6.9-0.4c0.3-0.7-1.6-5.3-1-7s1.4-1.5,2.3,1.2
			s2.6,5.4,2.5,7.1c-0.1,1.8-3.1,3.2-3.1,3.2s5.8-0.6,7.6,1.1c1.7,1.7-1.8,1.6-4.5,1.9c-2.8,0.2-5.4,1-7,0.7c0,0,7.4,0,8.8,1.3
			c1.4,1.2-1.5,2-4.4,1.9c-2.8-0.1-6.6,0.4-7.2,0.4c0,0,6.6,0.9,6.3,2.6c-0.2,1.6-1.4,0.5-5,0.8c-3.6,0.3-6.6,0.2-10-0.9
			s-16.7-11.7-16.7-11.7L361.3,290.6L361.3,290.6z"/>
		<path class="st19" d="M268.6,366.8c-12.1-0.1-40.5-0.5-70-1.1c-47.8-0.9-85.8-12.8-96.8-23.4c-5.3-5.1-8.4-13.2-7.3-20.8
			c4,3.1,11.8,8.6,26.7,16c24.5,12.2,69.6,18.8,105.4,22.3c35.8,3.5,39,1.9,39,1.9L268.6,366.8L268.6,366.8z"/>
		<path class="st20" d="M243.5,83.9c-4.8-2.4-12.5-3.8-12.5-3.8c-0.1-0.6-0.2-1.2-0.2-1.7c0.6-2.5,2.3-5.8,6.5-7.3
			c0.7-0.3,1.5-0.4,2.2-0.6c-0.8,0.8-1.6,2.4-0.9,4.9C239.8,79.7,248.3,86.2,243.5,83.9z"/>
		<path class="st20" d="M239,92.9c0,0-8.9-3.4-17.4,0c-8.5,3.4-9.7,12.5-11.7,13.4c0,0,1.7-12.2,10.9-14.8
			C229.9,88.7,239,92.9,239,92.9L239,92.9z"/>
		<path class="st20" d="M245.8,87.3l-3.4,7.6C242.4,94.9,247,92.8,245.8,87.3z"/>
	</g>
</g>
</svg>
